<?xml version="1.0" encoding="UTF-8" standalone="no"?>
<!-- Creator: CorelDRAW -->

<svg
   xmlns:dc="http://purl.org/dc/elements/1.1/"
   xmlns:cc="http://creativecommons.org/ns#"
   xmlns:rdf="http://www.w3.org/1999/02/22-rdf-syntax-ns#"
   xmlns:svg="http://www.w3.org/2000/svg"
   xmlns="http://www.w3.org/2000/svg"
   xmlns:xlink="http://www.w3.org/1999/xlink"
   xmlns:sodipodi="http://sodipodi.sourceforge.net/DTD/sodipodi-0.dtd"
   xmlns:inkscape="http://www.inkscape.org/namespaces/inkscape"
   xml:space="preserve"
   width="500"
   height="336"
   version="1.1"
   style="clip-rule:evenodd;fill-rule:evenodd;image-rendering:optimizeQuality;shape-rendering:geometricPrecision;text-rendering:geometricPrecision"
   viewBox="0 0 500 336"
   id="svg4173"
   inkscape:version="0.91 r13725"
   sodipodi:docname="LogoNID.svg"><metadata
     id="metadata4323"><rdf:RDF><cc:Work
         rdf:about=""><dc:format>image/svg+xml</dc:format><dc:type
           rdf:resource="http://purl.org/dc/dcmitype/StillImage" /><dc:title></dc:title></cc:Work></rdf:RDF></metadata><sodipodi:namedview
     pagecolor="#ffffff"
     bordercolor="#666666"
     borderopacity="1"
     objecttolerance="10"
     gridtolerance="10"
     guidetolerance="10"
     inkscape:pageopacity="0"
     inkscape:pageshadow="2"
     inkscape:window-width="1536"
     inkscape:window-height="793"
     id="namedview4321"
     showgrid="false"
     inkscape:zoom="1.1910625"
     inkscape:cx="373.83901"
     inkscape:cy="250"
     inkscape:window-x="-8"
     inkscape:window-y="-8"
     inkscape:window-maximized="1"
     inkscape:current-layer="svg4173" /><defs
     id="defs4175"><style
       type="text/css"
       id="style4177"><![CDATA[
    .fil4 {fill:#FFCA49;fill-rule:nonzero}
    .fil5 {fill:#37C0CA;fill-rule:nonzero}
    .fil0 {fill:#4756A3;fill-rule:nonzero}
    .fil6 {fill:#222124;fill-rule:nonzero}
    .fil2 {fill:url(#id0)}
    .fil3 {fill:url(#id1)}
    .fil1 {fill:url(#id2)}
   ]]></style><linearGradient
       id="id0"
       gradientUnits="userSpaceOnUse"
       x1="264.20999"
       y1="294.85999"
       x2="264.20999"
       y2="194.37"><stop
         offset="0"
         style="stop-opacity:1; stop-color:#29ACCA"
         id="stop4180" /><stop
         offset="0.592157"
         style="stop-opacity:1; stop-color:#30B6CA"
         id="stop4182" /><stop
         offset="0.988235"
         style="stop-opacity:1; stop-color:#37C0CA"
         id="stop4184" /><stop
         offset="1"
         style="stop-opacity:1; stop-color:#37C0CA"
         id="stop4186" /></linearGradient><linearGradient
       id="id1"
       gradientUnits="userSpaceOnUse"
       xlink:href="#id0"
       x1="190.39"
       y1="226.17999"
       x2="190.39"
       y2="201.09"
       gradientTransform="matrix(0.71763997,0,0,0.71763997,71.109999,129.1392)" /><linearGradient
       id="id2"
       gradientUnits="userSpaceOnUse"
       xlink:href="#id0"
       x1="190.35001"
       y1="294.85999"
       x2="190.35001"
       y2="244.92"
       gradientTransform="matrix(0.71763997,0,0,0.71763997,71.109999,129.1392)" /><linearGradient
       inkscape:collect="always"
       xlink:href="#id0"
       id="linearGradient4865"
       gradientUnits="userSpaceOnUse"
       x1="264.20999"
       y1="294.85999"
       x2="264.20999"
       y2="194.37"
       gradientTransform="matrix(0.71763997,0,0,0.71763997,71.109999,129.1392)" /></defs><g
     id="Camada_x0020_1"
     transform="matrix(1.3934564,0,0,1.3934564,-99.088685,-179.94984)"><metadata
       id="CorelCorpID_0Corel-Layer" /><g
       id="_2582694389440"><path
         class="fil0"
         d="m 96.27,234.29 0,56.64 c 0,2.17 -1.76,3.93 -3.94,3.93 l -17.29,0 c -2.17,0 -3.93,-1.76 -3.93,-3.93 l 0,-92.62 c 0,-2.18 1.76,-3.94 3.93,-3.94 l 21.92,0 c 1.33,0 2.57,0.67 3.3,1.79 l 35.79,54.81 0.13,0 0,-52.66 c 0,-2.18 1.76,-3.94 3.93,-3.94 l 17.29,0 c 2.17,0 3.94,1.76 3.94,3.94 l 0,92.62 c 0,2.17 -1.77,3.93 -3.94,3.93 l -19.47,0 c -1.33,0 -2.57,-0.67 -3.3,-1.78 l -38.24,-58.79 -0.12,0 z"
         id="path4193"
         inkscape:connector-curvature="0"
         style="fill:#4756a3;fill-rule:nonzero" /><path
         class="fil1"
         d="m 181.96,294.86 16.77,0 c 2.18,0 3.94,-1.76 3.94,-3.93 l 0,0 0,-42.08 c 0,-2.17 -1.76,-3.93 -3.94,-3.93 l 0,0 -16.77,0 c -2.17,0 -3.93,1.76 -3.93,3.93 l 0,42.08 c 0,2.17 1.76,3.93 3.93,3.93 z"
         id="path4195"
         style="fill:url(#id2)"
         inkscape:connector-curvature="0" /><path
         class="fil2"
         d="m 252.73,194.37 -29.31,0 c -2.17,0 -3.93,1.76 -3.93,3.94 l 0,0 0,92.62 c 0,2.17 1.76,3.93 3.93,3.93 l 0,0 29.44,0 c 31.05,0 56.08,-17.45 56.08,-50.56 0,-33.5 -24.9,-49.93 -56.21,-49.93 z m -7.96,73.07 0,-45.9 c 0,-2.18 1.76,-3.94 3.93,-3.94 l 0,0 4.28,0 c 16.43,0 30.04,9.24 30.04,26.83 l 0,0 c 0,17.84 -13.35,26.95 -30.16,26.95 l 0,0 -4.16,0 c -2.17,0 -3.93,-1.76 -3.93,-3.94 l 0,0 z"
         id="path4197"
         style="fill:url(#linearGradient4865)"
         inkscape:connector-curvature="0" /><path
         class="fil3"
         d="m 177.84,213.63 c 0,6.94 5.62,12.55 12.55,12.55 l 0,0 c 6.93,0 12.55,-5.61 12.55,-12.55 l 0,0 c 0,-6.93 -5.62,-12.54 -12.55,-12.54 -6.93,0 -12.55,5.61 -12.55,12.54 z"
         id="path4199"
         style="fill:url(#id1)"
         inkscape:connector-curvature="0" /><path
         class="fil4"
         d="m 293.21,134.42 c 12.84,-1.85 25.92,-1.35 38.63,1.08 12.68,2.6 24.96,7.23 36.17,13.77 1.57,0.95 3.44,-2.1 1.81,-3.08 -11.55,-6.74 -24.21,-11.52 -37.29,-14.19 -13.09,-2.52 -26.58,-3.02 -39.81,-1.11 -1.89,0.23 -1.33,3.76 0.49,3.53 z"
         id="path4201"
         inkscape:connector-curvature="0"
         style="fill:#ffca49;fill-rule:nonzero" /><path
         class="fil0"
         d="m 285.27,158.29 c 17.67,-4.59 36.25,-4.02 53.46,1.69 17.2,5.65 32.79,16.42 44.1,30.48 3.17,3.93 6.07,8.07 8.52,12.49 0.76,1.27 3.9,-0.43 3.11,-1.77 -9.21,-16.27 -23.33,-29.81 -40.07,-38.48 -16.71,-8.7 -35.81,-12.49 -54.46,-10.63 -5.23,0.54 -10.42,1.47 -15.57,2.76 -1.5,0.45 -0.53,3.88 0.91,3.46 z"
         id="path4203"
         inkscape:connector-curvature="0"
         style="fill:#4756a3;fill-rule:nonzero" /><path
         class="fil5"
         d="m 399.4,278.28 c -5.43,17.27 -16,32.99 -29.92,44.49 -3.44,2.92 -7.19,5.45 -10.99,7.85 -3.84,2.36 -7.89,4.36 -12.01,6.21 -8.33,3.46 -17.27,5.95 -26.25,6.97 -5.03,0.57 -10.09,0.86 -15.13,0.61 -1.47,-0.06 -1.71,3.51 -0.15,3.57 18.63,0.88 37.88,-4.02 53.95,-13.46 16.14,-9.43 29.51,-23.72 37.95,-40.56 2.39,-4.69 4.42,-9.58 5.96,-14.6 0.5,-1.48 -2.93,-2.49 -3.41,-1.08 z"
         id="path4205"
         inkscape:connector-curvature="0"
         style="fill:#37c0ca;fill-rule:nonzero" /><path
         class="fil5"
         d="m 389.31,165.27 c 18.92,17.74 31.37,41.96 35.16,67.71 0.22,1.82 3.77,1.37 3.53,-0.52 -3.9,-26.52 -16.73,-51.5 -36.24,-69.79 -1.39,-1.29 -3.79,1.35 -2.45,2.6 z"
         id="path4207"
         inkscape:connector-curvature="0"
         style="fill:#37c0ca;fill-rule:nonzero" /><path
         class="fil5"
         d="m 411.67,305.22 c -6.11,11.45 -14.29,21.75 -23.77,30.55 -9.53,8.78 -20.56,15.84 -32.42,21.03 -1.68,0.7 -0.34,4.01 1.42,3.28 12.22,-5.35 23.59,-12.63 33.41,-21.68 9.78,-9.07 18.2,-19.68 24.5,-31.48 0.93,-1.67 -2.24,-3.3 -3.14,-1.7 z"
         id="path4209"
         inkscape:connector-curvature="0"
         style="fill:#37c0ca;fill-rule:nonzero" /><path
         class="fil4"
         d="m 425.32,259.17 c -0.68,8.72 -2.34,17.38 -5.03,25.72 -0.57,1.74 2.81,2.89 3.41,1.08 2.77,-8.6 4.48,-17.52 5.18,-26.51 0.14,-1.9 -3.42,-2.11 -3.56,-0.29 z"
         id="path4211"
         inkscape:connector-curvature="0"
         style="fill:#ffca49;fill-rule:nonzero" /><path
         class="fil4"
         d="m 399.73,222.53 c 2.05,6.88 3.35,13.96 3.84,21.03 0.12,1.48 3.69,1.31 3.56,-0.24 -0.51,-7.35 -1.85,-14.69 -3.98,-21.82 -0.42,-1.51 -3.82,-0.42 -3.42,1.03 z"
         id="path4213"
         inkscape:connector-curvature="0"
         style="fill:#ffca49;fill-rule:nonzero" /><path
         class="fil4"
         d="m 339.08,362.52 c -12.5,3.5 -25.59,4.72 -38.51,3.96 -12.93,-0.81 -25.65,-3.89 -37.6,-8.86 -1.68,-0.74 -3.14,2.52 -1.39,3.29 12.31,5.13 25.44,8.3 38.76,9.13 13.32,0.79 26.81,-0.47 39.69,-4.08 1.84,-0.48 0.82,-3.91 -0.95,-3.44 z"
         id="path4215"
         inkscape:connector-curvature="0"
         style="fill:#ffca49;fill-rule:nonzero" /><path
         class="fil5"
         d="m 375.25,317.62 c -13.01,12.6 -29.8,21.38 -47.51,24.85 -4.42,0.93 -8.91,1.37 -13.41,1.67 -4.5,0.24 -9.01,0.07 -13.52,-0.27 -8.96,-0.92 -18.02,-2.99 -26.4,-6.38 -4.69,-1.89 -9.27,-4.05 -13.58,-6.67 -1.27,-0.76 -3.18,2.27 -1.84,3.06 15.96,9.66 35.22,14.52 53.85,13.88 18.68,-0.6 37.24,-6.79 52.69,-17.57 4.34,-2.99 8.44,-6.32 12.2,-10 1.14,-1.06 -1.39,-3.58 -2.48,-2.57 z"
         id="path4217"
         inkscape:connector-curvature="0"
         style="fill:#37c0ca;fill-rule:nonzero" /><path
         class="fil4"
         d="m 335.93,365.76 c -0.43,-1.65 0.56,-3.33 2.21,-3.76 1.65,-0.42 3.34,0.57 3.76,2.22 0.43,1.65 -0.56,3.33 -2.21,3.76 -1.65,0.42 -3.34,-0.57 -3.76,-2.22 z"
         id="path4219"
         inkscape:connector-curvature="0"
         style="fill:#ffca49;fill-rule:nonzero" /><path
         class="fil4"
         d="m 366.21,148.28 c -0.43,-1.65 0.57,-3.33 2.22,-3.76 1.65,-0.42 3.33,0.57 3.75,2.22 0.43,1.65 -0.56,3.33 -2.21,3.76 -1.65,0.42 -3.33,-0.57 -3.76,-2.22 z"
         id="path4221"
         inkscape:connector-curvature="0"
         style="fill:#ffca49;fill-rule:nonzero" /><path
         class="fil0"
         d="m 273.24,181.55 c 7.2,-3.59 14.89,-6.09 22.92,-7.15 4.01,-0.53 8.13,-0.76 12.23,-0.68 4.08,0.14 8.09,0.61 12.04,1.38 1.1,0.23 1.88,-3.26 0.69,-3.51 -4.14,-0.8 -8.35,-1.3 -12.63,-1.44 -4.29,-0.08 -8.61,0.15 -12.82,0.71 -8.42,1.12 -16.49,3.74 -24.06,7.5 -1.06,0.59 0.63,3.74 1.63,3.19 z"
         id="path4223"
         inkscape:connector-curvature="0"
         style="fill:#4756a3;fill-rule:nonzero" /><path
         class="fil0"
         d="m 268.63,181.6 c -0.5,-1.74 0.51,-3.55 2.24,-4.05 1.74,-0.5 3.55,0.5 4.05,2.24 0.5,1.73 -0.5,3.55 -2.24,4.05 -1.73,0.49 -3.55,-0.51 -4.05,-2.24 z"
         id="path4225"
         inkscape:connector-curvature="0"
         style="fill:#4756a3;fill-rule:nonzero" /><path
         class="fil0"
         d="m 318.3,174.63 c -0.17,-1.8 1.14,-3.39 2.94,-3.57 1.8,-0.17 3.4,1.15 3.57,2.94 0.17,1.8 -1.14,3.4 -2.94,3.57 -1.8,0.18 -3.4,-1.14 -3.57,-2.94 z"
         id="path4227"
         inkscape:connector-curvature="0"
         style="fill:#4756a3;fill-rule:nonzero" /><path
         class="fil4"
         d="m 293.21,134.42 c 12.84,-1.85 25.92,-1.35 38.63,1.08 12.68,2.6 24.96,7.23 36.17,13.77 1.57,0.95 3.44,-2.1 1.81,-3.08 -11.55,-6.74 -24.21,-11.52 -37.29,-14.19 -13.09,-2.52 -26.58,-3.02 -39.81,-1.11 -1.89,0.23 -1.33,3.76 0.49,3.53 z"
         id="path4229"
         inkscape:connector-curvature="0"
         style="fill:#ffca49;fill-rule:nonzero" /><path
         class="fil0"
         d="m 285.27,158.29 c 17.67,-4.59 36.25,-4.02 53.46,1.69 17.2,5.65 32.79,16.42 44.1,30.48 3.17,3.93 6.07,8.07 8.52,12.49 0.76,1.27 3.9,-0.43 3.11,-1.77 -9.21,-16.27 -23.33,-29.81 -40.07,-38.48 -16.71,-8.7 -35.81,-12.49 -54.46,-10.63 -5.23,0.54 -10.42,1.47 -15.57,2.76 -1.5,0.45 -0.53,3.88 0.91,3.46 z"
         id="path4231"
         inkscape:connector-curvature="0"
         style="fill:#4756a3;fill-rule:nonzero" /><path
         class="fil5"
         d="m 399.4,278.28 c -5.43,17.27 -16,32.99 -29.92,44.49 -3.44,2.92 -7.19,5.45 -10.99,7.85 -3.84,2.36 -7.89,4.36 -12.01,6.21 -8.33,3.46 -17.27,5.95 -26.25,6.97 -5.03,0.57 -10.09,0.86 -15.13,0.61 -1.47,-0.06 -1.71,3.51 -0.15,3.57 18.63,0.88 37.88,-4.02 53.95,-13.46 16.14,-9.43 29.51,-23.72 37.95,-40.56 2.39,-4.69 4.42,-9.58 5.96,-14.6 0.5,-1.48 -2.93,-2.49 -3.41,-1.08 z"
         id="path4233"
         inkscape:connector-curvature="0"
         style="fill:#37c0ca;fill-rule:nonzero" /><path
         class="fil5"
         d="m 389.31,165.27 c 18.92,17.74 31.37,41.96 35.16,67.71 0.22,1.82 3.77,1.37 3.53,-0.52 -3.9,-26.52 -16.73,-51.5 -36.24,-69.79 -1.39,-1.29 -3.79,1.35 -2.45,2.6 z"
         id="path4235"
         inkscape:connector-curvature="0"
         style="fill:#37c0ca;fill-rule:nonzero" /><path
         class="fil5"
         d="m 411.67,305.22 c -6.11,11.45 -14.29,21.75 -23.77,30.55 -9.53,8.78 -20.56,15.84 -32.42,21.03 -1.68,0.7 -0.34,4.01 1.42,3.28 12.22,-5.35 23.59,-12.63 33.41,-21.68 9.78,-9.07 18.2,-19.68 24.5,-31.48 0.93,-1.67 -2.24,-3.3 -3.14,-1.7 z"
         id="path4237"
         inkscape:connector-curvature="0"
         style="fill:#37c0ca;fill-rule:nonzero" /><path
         class="fil4"
         d="m 425.32,259.17 c -0.68,8.72 -2.34,17.38 -5.03,25.72 -0.57,1.74 2.81,2.89 3.41,1.08 2.77,-8.6 4.48,-17.52 5.18,-26.51 0.14,-1.9 -3.42,-2.11 -3.56,-0.29 z"
         id="path4239"
         inkscape:connector-curvature="0"
         style="fill:#ffca49;fill-rule:nonzero" /><path
         class="fil4"
         d="m 399.73,222.53 c 2.05,6.88 3.35,13.96 3.84,21.03 0.12,1.48 3.69,1.31 3.56,-0.24 -0.51,-7.35 -1.85,-14.69 -3.98,-21.82 -0.42,-1.51 -3.82,-0.42 -3.42,1.03 z"
         id="path4241"
         inkscape:connector-curvature="0"
         style="fill:#ffca49;fill-rule:nonzero" /><path
         class="fil0"
         d="m 369.43,203.03 c 5.13,6.21 9.31,13.13 12.17,20.71 1.42,3.78 2.57,7.75 3.43,11.76 0.79,4 1.24,8.02 1.39,12.03 0.03,1.13 3.6,1.09 3.57,-0.12 -0.16,-4.21 -0.63,-8.43 -1.46,-12.62 -0.89,-4.2 -2.11,-8.36 -3.6,-12.33 -3,-7.95 -7.39,-15.22 -12.77,-21.73 -0.81,-0.9 -3.49,1.46 -2.73,2.3 z"
         id="path4243"
         inkscape:connector-curvature="0"
         style="fill:#4756a3;fill-rule:nonzero" /><path
         class="fil5"
         d="m 336.97,179.48 c 5.11,1.95 10.07,4.42 14.65,7.47 0.93,0.66 2.97,-2.27 1.97,-2.98 -4.8,-3.19 -10,-5.79 -15.37,-7.83 -1.13,-0.44 -2.32,2.92 -1.25,3.34 z"
         id="path4245"
         inkscape:connector-curvature="0"
         style="fill:#37c0ca;fill-rule:nonzero" /><path
         class="fil4"
         d="m 339.08,362.52 c -12.5,3.5 -25.59,4.72 -38.51,3.96 -12.93,-0.81 -25.65,-3.89 -37.6,-8.86 -1.68,-0.74 -3.14,2.52 -1.39,3.29 12.31,5.13 25.44,8.3 38.76,9.13 13.32,0.79 26.81,-0.47 39.69,-4.08 1.84,-0.48 0.82,-3.91 -0.95,-3.44 z"
         id="path4247"
         inkscape:connector-curvature="0"
         style="fill:#ffca49;fill-rule:nonzero" /><path
         class="fil5"
         d="m 375.25,317.62 c -13.01,12.6 -29.8,21.38 -47.51,24.85 -4.42,0.93 -8.91,1.37 -13.41,1.67 -4.5,0.24 -9.01,0.07 -13.52,-0.27 -8.96,-0.92 -18.02,-2.99 -26.4,-6.38 -4.69,-1.89 -9.27,-4.05 -13.58,-6.67 -1.27,-0.76 -3.18,2.27 -1.84,3.06 15.96,9.66 35.22,14.52 53.85,13.88 18.68,-0.6 37.24,-6.79 52.69,-17.57 4.34,-2.99 8.44,-6.32 12.2,-10 1.14,-1.06 -1.39,-3.58 -2.48,-2.57 z"
         id="path4249"
         inkscape:connector-curvature="0"
         style="fill:#37c0ca;fill-rule:nonzero" /><path
         class="fil0"
         d="m 382.8,269.28 c -3.29,13.43 -10.68,26.06 -20.84,35.59 -10.16,9.57 -22.76,15.94 -36.66,18.52 -3.9,0.71 -7.8,1.06 -11.68,1.18 -1.13,0 -1.14,3.58 0.08,3.57 3.63,-0.13 7.28,-0.35 10.93,-1.04 1.84,-0.2 3.62,-0.74 5.44,-1.05 1.75,-0.55 3.58,-0.87 5.28,-1.51 6.98,-2.16 13.52,-5.39 19.54,-9.43 12.04,-8.09 21.8,-19.92 27.52,-33.38 1.63,-3.75 2.86,-7.65 3.86,-11.59 0.29,-1.17 -3.2,-1.96 -3.47,-0.86 z"
         id="path4251"
         inkscape:connector-curvature="0"
         style="fill:#4756a3;fill-rule:nonzero" /><path
         class="fil0"
         d="m 309.16,326.46 c -0.32,-1.68 0.79,-3.29 2.46,-3.6 1.68,-0.32 3.29,0.79 3.6,2.46 0.32,1.68 -0.79,3.29 -2.46,3.6 -1.68,0.32 -3.29,-0.79 -3.6,-2.46 z"
         id="path4253"
         inkscape:connector-curvature="0"
         style="fill:#4756a3;fill-rule:nonzero" /><path
         class="fil0"
         d="m 381.91,270.67 c -0.32,-1.68 0.79,-3.29 2.46,-3.6 1.68,-0.32 3.29,0.79 3.6,2.46 0.31,1.68 -0.79,3.29 -2.46,3.6 -1.68,0.32 -3.29,-0.79 -3.6,-2.46 z"
         id="path4255"
         inkscape:connector-curvature="0"
         style="fill:#4756a3;fill-rule:nonzero" /><path
         class="fil0"
         d="m 381.91,270.67 c -0.32,-1.68 0.79,-3.29 2.46,-3.6 1.68,-0.32 3.29,0.79 3.6,2.46 0.31,1.68 -0.79,3.29 -2.46,3.6 -1.68,0.32 -3.29,-0.79 -3.6,-2.46 z"
         id="path4257"
         inkscape:connector-curvature="0"
         style="fill:#4756a3;fill-rule:nonzero" /><path
         class="fil4"
         d="m 335.93,365.76 c -0.43,-1.65 0.56,-3.33 2.21,-3.76 1.65,-0.42 3.34,0.57 3.76,2.22 0.43,1.65 -0.56,3.33 -2.21,3.76 -1.65,0.42 -3.34,-0.57 -3.76,-2.22 z"
         id="path4259"
         inkscape:connector-curvature="0"
         style="fill:#ffca49;fill-rule:nonzero" /><path
         class="fil4"
         d="m 366.21,148.28 c -0.43,-1.65 0.57,-3.33 2.22,-3.76 1.65,-0.42 3.33,0.57 3.75,2.22 0.43,1.65 -0.56,3.33 -2.21,3.76 -1.65,0.42 -3.33,-0.57 -3.76,-2.22 z"
         id="path4261"
         inkscape:connector-curvature="0"
         style="fill:#ffca49;fill-rule:nonzero" /><path
         class="fil0"
         d="m 290.38,296.29 c 8.6,4.54 18.32,6.57 28.44,5.65 9.78,-0.87 18.99,-4.5 26.81,-10.59 2.17,-1.7 4.26,-3.54 6.11,-5.6 0.58,-0.58 -1.93,-2.82 -2.47,-2.29 -6.3,6.82 -14.5,11.67 -23.21,13.87 -2.19,0.52 -4.43,0.92 -6.71,1.2 -2.29,0.14 -4.65,0.37 -7,0.21 -2.34,-0.12 -4.64,-0.29 -6.86,-0.75 -1.14,-0.12 -2.21,-0.51 -3.33,-0.69 -1.06,-0.38 -2.18,-0.56 -3.23,-1 -2.39,-0.8 -4.75,-1.75 -6.98,-2.98 l -1.57,2.97 z"
         id="path4263"
         inkscape:connector-curvature="0"
         style="fill:#4756a3;fill-rule:nonzero" /><path
         class="fil4"
         d="m 311.49,203.17 c 5.51,-0.22 10.89,0.27 15.9,1.78 2.52,0.73 4.99,1.61 7.37,2.76 2.37,1.16 4.67,2.51 6.85,4.04 0.61,0.43 2.61,-2.27 1.94,-2.75 -2.34,-1.64 -4.8,-3.09 -7.34,-4.33 -2.55,-1.22 -5.2,-2.18 -7.9,-2.96 -5.37,-1.61 -11.13,-2.14 -17,-1.9 -0.83,0.08 -0.57,3.44 0.18,3.36 z"
         id="path4265"
         inkscape:connector-curvature="0"
         style="fill:#ffca49;fill-rule:nonzero" /><path
         class="fil5"
         d="m 359.65,235.97 c 0.81,2.49 1.42,5.04 1.85,7.66 0.38,2.62 0.53,5.34 0.51,8.08 0.01,2.75 -0.3,5.41 -0.79,8 -0.48,2.59 -1.13,5.14 -2.02,7.61 -0.28,0.68 2.85,1.9 3.16,1.15 0.95,-2.65 1.65,-5.37 2.17,-8.15 0.52,-2.78 0.85,-5.62 0.84,-8.56 0.02,-2.93 -0.13,-5.83 -0.54,-8.63 -0.46,-2.8 -1.12,-5.54 -1.99,-8.21 -0.26,-0.77 -3.43,0.35 -3.19,1.05 z"
         id="path4267"
         inkscape:connector-curvature="0"
         style="fill:#37c0ca;fill-rule:nonzero" /><path
         class="fil5"
         d="m 349.76,218.94 c 2.42,2.72 4.53,5.69 6.29,8.81 0.39,0.64 3.37,-0.94 2.94,-1.64 -1.88,-3.34 -4.15,-6.51 -6.73,-9.42 -0.56,-0.61 -3.01,1.7 -2.5,2.25 z"
         id="path4269"
         inkscape:connector-curvature="0"
         style="fill:#37c0ca;fill-rule:nonzero" /><path
         class="fil4"
         d="m 307.97,203.42 c -0.63,-1.7 0.24,-3.58 1.94,-4.2 1.7,-0.63 3.57,0.24 4.2,1.94 0.62,1.7 -0.25,3.58 -1.94,4.2 -1.7,0.62 -3.58,-0.25 -4.2,-1.94 z"
         id="path4271"
         inkscape:connector-curvature="0"
         style="fill:#ffca49;fill-rule:nonzero" /><path
         class="fil4"
         d="m 340.05,212.58 c -0.62,-1.69 0.25,-3.57 1.94,-4.19 1.7,-0.63 3.58,0.24 4.2,1.94 0.63,1.69 -0.24,3.57 -1.94,4.2 -1.7,0.62 -3.58,-0.25 -4.2,-1.95 z"
         id="path4273"
         inkscape:connector-curvature="0"
         style="fill:#ffca49;fill-rule:nonzero" /><polygon
         class="fil6"
         points="79.75,316.62 79.75,308.06 81.15,308.06 81.15,318.96 79.42,318.96 74.5,309.6 74.5,318.96 73.1,318.96 73.1,308.06 75.23,308.06 "
         id="polygon4275"
         style="fill:#222124;fill-rule:nonzero" /><path
         class="fil6"
         d="m 88.59,309.44 -1.12,0 1.4,-2.84 1.86,0 -2.14,2.84 z m 1.67,9.52 0,-1.23 c -0.42,0.42 -0.88,0.77 -1.39,1.05 -0.5,0.28 -1,0.42 -1.48,0.42 -0.55,0 -1,-0.1 -1.34,-0.31 -0.35,-0.21 -0.6,-0.52 -0.75,-0.94 -0.16,-0.41 -0.23,-0.99 -0.23,-1.73 l 0,-5.53 1.35,0 0,4.88 c 0,0.79 0.04,1.31 0.12,1.58 0.09,0.26 0.21,0.45 0.39,0.57 0.18,0.11 0.44,0.17 0.78,0.17 0.34,0 0.75,-0.13 1.21,-0.39 0.46,-0.27 0.91,-0.59 1.34,-0.96 l 0,-5.85 1.35,0 0,8.27 -1.35,0 z"
         id="path4277"
         inkscape:connector-curvature="0"
         style="fill:#222124;fill-rule:nonzero" /><path
         class="fil6"
         d="m 101.71,317.68 c -0.26,0.44 -0.62,0.81 -1.07,1.09 -0.46,0.29 -1.09,0.43 -1.89,0.43 -1.22,0 -2.13,-0.37 -2.75,-1.1 -0.61,-0.73 -0.92,-1.82 -0.92,-3.25 0,-1.44 0.31,-2.53 0.92,-3.28 0.61,-0.74 1.5,-1.11 2.69,-1.11 1.36,0 2.33,0.5 2.91,1.51 l -1.11,0.68 c -0.21,-0.32 -0.45,-0.57 -0.72,-0.75 -0.28,-0.18 -0.64,-0.27 -1.1,-0.27 -0.79,0 -1.35,0.29 -1.68,0.86 -0.34,0.58 -0.5,1.37 -0.5,2.39 0,0.77 0.07,1.37 0.23,1.8 0.16,0.43 0.4,0.76 0.74,0.99 0.33,0.23 0.76,0.35 1.27,0.35 0.44,0 0.8,-0.08 1.08,-0.25 0.28,-0.16 0.54,-0.42 0.79,-0.77 l 1.11,0.68 z"
         id="path4279"
         inkscape:connector-curvature="0"
         style="fill:#222124;fill-rule:nonzero" /><polygon
         class="fil6"
         points="106.24,318.96 104.89,318.96 104.89,307.23 106.24,307.23 "
         id="polygon4281"
         style="fill:#222124;fill-rule:nonzero" /><path
         class="fil6"
         d="m 115.22,313.92 c -0.01,-0.74 -0.16,-1.31 -0.46,-1.72 -0.31,-0.41 -0.8,-0.61 -1.47,-0.61 -0.65,0 -1.13,0.18 -1.46,0.55 -0.32,0.37 -0.53,0.97 -0.64,1.78 l 4.03,0 z m -4.04,1.07 c 0,1.09 0.18,1.87 0.55,2.33 0.38,0.47 0.98,0.7 1.8,0.7 0.37,0 0.69,-0.08 0.97,-0.23 0.28,-0.16 0.55,-0.41 0.8,-0.75 l 1.12,0.69 c -0.31,0.47 -0.7,0.83 -1.15,1.09 -0.45,0.25 -1.06,0.38 -1.83,0.38 -1.23,0 -2.15,-0.36 -2.76,-1.07 -0.6,-0.71 -0.91,-1.79 -0.91,-3.24 0,-1.51 0.3,-2.63 0.89,-3.35 0.59,-0.72 1.48,-1.08 2.67,-1.08 1.08,0 1.88,0.31 2.42,0.92 0.53,0.62 0.8,1.57 0.8,2.85 l 0,0.76 -5.37,0 z"
         id="path4283"
         inkscape:connector-curvature="0"
         style="fill:#222124;fill-rule:nonzero" /><path
         class="fil6"
         d="m 125.37,314.85 c 0,-1.13 -0.19,-1.94 -0.56,-2.45 -0.37,-0.51 -0.92,-0.77 -1.67,-0.77 -0.76,0 -1.32,0.26 -1.69,0.77 -0.37,0.51 -0.55,1.33 -0.55,2.45 0,1.07 0.18,1.87 0.53,2.39 0.36,0.52 0.93,0.78 1.71,0.78 0.76,0 1.31,-0.26 1.68,-0.77 0.36,-0.52 0.55,-1.32 0.55,-2.4 z m 1.4,0 c 0,1.43 -0.31,2.51 -0.93,3.25 -0.61,0.73 -1.51,1.1 -2.7,1.1 -1.18,0 -2.08,-0.36 -2.7,-1.09 -0.63,-0.73 -0.94,-1.81 -0.94,-3.26 0,-1.48 0.31,-2.58 0.94,-3.31 0.63,-0.72 1.53,-1.08 2.7,-1.08 1.19,0 2.09,0.37 2.71,1.1 0.61,0.74 0.92,1.84 0.92,3.29 z"
         id="path4285"
         inkscape:connector-curvature="0"
         style="fill:#222124;fill-rule:nonzero" /><path
         class="fil6"
         d="m 141.01,312.55 c -0.72,-0.59 -1.43,-0.89 -2.13,-0.89 -0.61,0 -1.11,0.26 -1.5,0.78 -0.4,0.52 -0.59,1.32 -0.59,2.42 0,2.09 0.66,3.13 1.97,3.13 0.43,0 0.84,-0.11 1.23,-0.33 0.39,-0.21 0.73,-0.46 1.02,-0.74 l 0,-4.37 z m 0,6.41 0,-0.82 c -0.31,0.3 -0.68,0.55 -1.12,0.75 -0.43,0.21 -0.9,0.31 -1.39,0.31 -0.99,0 -1.76,-0.37 -2.3,-1.12 -0.54,-0.75 -0.81,-1.81 -0.81,-3.19 0,-1.35 0.29,-2.42 0.88,-3.23 0.59,-0.8 1.4,-1.2 2.44,-1.2 0.84,0 1.6,0.3 2.3,0.91 l 0,-4.14 1.36,0 0,11.73 -1.36,0 z"
         id="path4287"
         inkscape:connector-curvature="0"
         style="fill:#222124;fill-rule:nonzero" /><path
         class="fil6"
         d="m 151.3,313.92 c -0.02,-0.74 -0.17,-1.31 -0.47,-1.72 -0.31,-0.41 -0.8,-0.61 -1.47,-0.61 -0.65,0 -1.13,0.18 -1.46,0.55 -0.32,0.37 -0.53,0.97 -0.64,1.78 l 4.04,0 z m -4.05,1.07 c 0,1.09 0.18,1.87 0.55,2.33 0.38,0.47 0.98,0.7 1.8,0.7 0.37,0 0.69,-0.08 0.97,-0.23 0.28,-0.16 0.55,-0.41 0.8,-0.75 l 1.12,0.69 c -0.31,0.47 -0.7,0.83 -1.15,1.09 -0.45,0.25 -1.06,0.38 -1.83,0.38 -1.23,0 -2.15,-0.36 -2.76,-1.07 -0.6,-0.71 -0.91,-1.79 -0.91,-3.24 0,-1.51 0.3,-2.63 0.89,-3.35 0.59,-0.72 1.48,-1.08 2.67,-1.08 1.08,0 1.88,0.31 2.41,0.92 0.54,0.62 0.81,1.57 0.81,2.85 l 0,0.76 -5.37,0 z"
         id="path4289"
         inkscape:connector-curvature="0"
         style="fill:#222124;fill-rule:nonzero" /><polygon
         class="fil6"
         points="161.02,308.06 165.47,308.06 165.47,309.29 163.97,309.29 163.97,317.7 165.47,317.7 165.47,318.96 161.02,318.96 161.02,317.7 162.52,317.7 162.52,309.29 161.02,309.29 "
         id="polygon4291"
         style="fill:#222124;fill-rule:nonzero" /><path
         class="fil6"
         d="m 174.02,318.96 0,-4.87 c 0,-0.79 -0.04,-1.31 -0.12,-1.58 -0.08,-0.26 -0.21,-0.45 -0.39,-0.57 -0.18,-0.12 -0.44,-0.17 -0.78,-0.17 -0.34,0 -0.75,0.13 -1.21,0.39 -0.46,0.26 -0.91,0.58 -1.34,0.96 l 0,5.84 -1.35,0 0,-8.27 1.35,0 0,1.23 c 0.38,-0.38 0.83,-0.72 1.34,-1.02 0.51,-0.29 1.02,-0.44 1.54,-0.44 0.79,0 1.38,0.23 1.75,0.68 0.38,0.45 0.56,1.22 0.56,2.3 l 0,5.52 -1.35,0 z"
         id="path4293"
         inkscape:connector-curvature="0"
         style="fill:#222124;fill-rule:nonzero" /><path
         class="fil6"
         d="m 185.4,317.68 c -0.25,0.44 -0.61,0.81 -1.07,1.09 -0.46,0.29 -1.09,0.43 -1.89,0.43 -1.21,0 -2.13,-0.37 -2.74,-1.1 -0.61,-0.73 -0.92,-1.82 -0.92,-3.25 0,-1.44 0.3,-2.53 0.91,-3.28 0.61,-0.74 1.51,-1.11 2.7,-1.11 1.36,0 2.33,0.5 2.9,1.51 l -1.11,0.68 c -0.2,-0.32 -0.44,-0.57 -0.72,-0.75 -0.27,-0.18 -0.64,-0.27 -1.09,-0.27 -0.79,0 -1.36,0.29 -1.69,0.86 -0.33,0.58 -0.5,1.37 -0.5,2.39 0,0.77 0.08,1.37 0.24,1.8 0.15,0.43 0.4,0.76 0.73,0.99 0.34,0.23 0.76,0.35 1.27,0.35 0.45,0 0.81,-0.08 1.09,-0.25 0.27,-0.16 0.54,-0.42 0.78,-0.77 l 1.11,0.68 z"
         id="path4295"
         inkscape:connector-curvature="0"
         style="fill:#222124;fill-rule:nonzero" /><polygon
         class="fil6"
         points="189.94,318.96 188.58,318.96 188.58,307.23 189.94,307.23 "
         id="polygon4297"
         style="fill:#222124;fill-rule:nonzero" /><path
         class="fil6"
         d="m 199.02,318.96 0,-1.23 c -0.43,0.42 -0.89,0.77 -1.39,1.05 -0.51,0.28 -1,0.42 -1.48,0.42 -0.55,0 -1,-0.1 -1.34,-0.31 -0.35,-0.21 -0.6,-0.52 -0.75,-0.94 -0.16,-0.42 -0.24,-0.99 -0.24,-1.73 l 0,-5.53 1.36,0 0,4.88 c 0,0.79 0.04,1.31 0.12,1.58 0.08,0.26 0.21,0.45 0.39,0.57 0.18,0.11 0.44,0.17 0.78,0.17 0.34,0 0.74,-0.13 1.21,-0.39 0.46,-0.27 0.9,-0.59 1.34,-0.96 l 0,-5.85 1.35,0 0,8.27 -1.35,0 z"
         id="path4299"
         inkscape:connector-curvature="0"
         style="fill:#222124;fill-rule:nonzero" /><path
         class="fil6"
         d="m 209.91,316.73 c 0,0.77 -0.28,1.38 -0.82,1.81 -0.55,0.44 -1.33,0.66 -2.34,0.66 -0.68,0 -1.3,-0.13 -1.85,-0.39 -0.54,-0.26 -0.94,-0.62 -1.19,-1.1 l 1.08,-0.66 c 0.42,0.67 1.08,1 2,1 0.6,0 1.05,-0.11 1.35,-0.34 0.29,-0.23 0.44,-0.54 0.44,-0.93 0,-0.23 -0.05,-0.42 -0.16,-0.56 -0.1,-0.14 -0.26,-0.27 -0.48,-0.38 -0.22,-0.11 -0.68,-0.25 -1.36,-0.44 -0.98,-0.22 -1.67,-0.53 -2.07,-0.93 -0.41,-0.4 -0.61,-0.93 -0.61,-1.59 0,-0.73 0.27,-1.32 0.79,-1.76 0.53,-0.44 1.25,-0.66 2.18,-0.66 0.72,0 1.33,0.14 1.81,0.42 0.49,0.29 0.85,0.63 1.08,1.03 l -1.08,0.66 c -0.43,-0.65 -1.05,-0.97 -1.84,-0.97 -0.45,0 -0.83,0.1 -1.14,0.3 -0.32,0.2 -0.47,0.51 -0.47,0.93 0,0.37 0.13,0.64 0.41,0.81 0.27,0.17 0.7,0.32 1.28,0.46 0.93,0.25 1.58,0.47 1.94,0.68 0.35,0.21 0.62,0.47 0.79,0.78 0.17,0.31 0.26,0.7 0.26,1.17 z"
         id="path4301"
         inkscape:connector-curvature="0"
         style="fill:#222124;fill-rule:nonzero" /><path
         class="fil6"
         d="m 217.97,314.77 -1.33,0.12 c -0.89,0.08 -1.53,0.26 -1.89,0.53 -0.37,0.27 -0.56,0.66 -0.56,1.18 0,0.5 0.13,0.85 0.38,1.07 0.24,0.21 0.61,0.32 1.11,0.32 0.2,0 0.4,-0.04 0.6,-0.12 0.2,-0.07 0.4,-0.17 0.59,-0.28 0.2,-0.11 0.39,-0.24 0.57,-0.39 0.18,-0.14 0.35,-0.28 0.53,-0.42 l 0,-2.01 z m -4.81,-5.43 c 0.03,-0.66 0.21,-1.17 0.54,-1.52 0.32,-0.36 0.74,-0.54 1.27,-0.54 0.29,0 0.54,0.05 0.76,0.17 0.21,0.12 0.41,0.25 0.59,0.39 0.19,0.13 0.36,0.26 0.52,0.38 0.16,0.12 0.34,0.17 0.53,0.17 0.46,0 0.72,-0.33 0.76,-1.01 l 0.96,0 c -0.1,1.38 -0.71,2.06 -1.83,2.06 -0.34,0 -0.62,-0.06 -0.83,-0.17 -0.21,-0.12 -0.39,-0.26 -0.56,-0.4 -0.16,-0.15 -0.31,-0.28 -0.46,-0.4 -0.14,-0.12 -0.32,-0.18 -0.54,-0.18 -0.26,0 -0.45,0.1 -0.56,0.29 -0.11,0.18 -0.17,0.44 -0.19,0.76 l -0.96,0 z m 4.81,9.62 0,-1.04 c -0.42,0.37 -0.84,0.68 -1.27,0.92 -0.43,0.24 -0.91,0.36 -1.44,0.36 -0.79,0 -1.4,-0.24 -1.82,-0.72 -0.43,-0.48 -0.65,-1.1 -0.65,-1.85 0,-0.56 0.12,-1.04 0.34,-1.41 0.22,-0.38 0.54,-0.67 0.97,-0.89 0.42,-0.22 1.03,-0.37 1.84,-0.47 l 2.03,-0.18 0,-0.4 c 0,-0.64 -0.18,-1.07 -0.53,-1.3 -0.36,-0.23 -0.85,-0.35 -1.47,-0.35 -0.56,0 -0.99,0.1 -1.29,0.29 -0.3,0.2 -0.52,0.41 -0.65,0.63 l -1.11,-0.67 c 0.25,-0.46 0.64,-0.81 1.15,-1.06 0.52,-0.24 1.16,-0.36 1.93,-0.36 1.19,0 2.04,0.21 2.55,0.64 0.52,0.43 0.77,1.18 0.77,2.24 l 0,5.62 -1.35,0 z"
         id="path4303"
         inkscape:connector-curvature="0"
         style="fill:#222124;fill-rule:nonzero" /><path
         class="fil6"
         d="m 228.6,314.85 c 0,-1.13 -0.19,-1.94 -0.56,-2.45 -0.37,-0.51 -0.92,-0.77 -1.66,-0.77 -0.76,0 -1.33,0.26 -1.7,0.77 -0.36,0.51 -0.55,1.33 -0.55,2.45 0,1.07 0.18,1.87 0.53,2.39 0.36,0.52 0.93,0.78 1.72,0.78 0.75,0 1.3,-0.26 1.67,-0.77 0.37,-0.52 0.55,-1.32 0.55,-2.4 z m 1.4,0 c 0,1.43 -0.31,2.51 -0.93,3.25 -0.61,0.73 -1.51,1.1 -2.69,1.1 -1.18,0 -2.09,-0.36 -2.71,-1.09 -0.63,-0.73 -0.94,-1.81 -0.94,-3.26 0,-1.48 0.31,-2.58 0.94,-3.31 0.63,-0.72 1.53,-1.08 2.71,-1.08 1.18,0 2.08,0.37 2.7,1.1 0.61,0.74 0.92,1.84 0.92,3.29 z"
         id="path4305"
         inkscape:connector-curvature="0"
         style="fill:#222124;fill-rule:nonzero" /><path
         class="fil6"
         d="m 245.41,313.49 c 0,-1.04 -0.12,-1.85 -0.35,-2.44 -0.23,-0.59 -0.61,-1.02 -1.14,-1.28 -0.53,-0.27 -1.27,-0.4 -2.22,-0.4 l -1.21,0 0,8.26 1.21,0 c 0.95,0 1.69,-0.13 2.21,-0.39 0.53,-0.27 0.91,-0.69 1.14,-1.28 0.24,-0.59 0.36,-1.41 0.36,-2.47 z m 1.53,0.02 c 0,1.33 -0.17,2.39 -0.51,3.18 -0.35,0.79 -0.88,1.36 -1.59,1.72 -0.72,0.37 -1.73,0.55 -3.03,0.55 l -2.77,0 0,-10.9 2.74,0 c 1.27,0 2.27,0.18 3.01,0.54 0.73,0.37 1.27,0.95 1.63,1.74 0.35,0.79 0.52,1.85 0.52,3.17 z"
         id="path4307"
         inkscape:connector-curvature="0"
         style="fill:#222124;fill-rule:nonzero" /><path
         class="fil6"
         d="m 250.42,310.69 1.36,0 0,8.27 -1.36,0 0,-8.27 z m 1.57,-2.09 c 0,0.31 -0.07,0.53 -0.21,0.64 -0.15,0.11 -0.37,0.17 -0.68,0.17 -0.33,0 -0.56,-0.07 -0.69,-0.21 -0.12,-0.14 -0.18,-0.34 -0.18,-0.6 0,-0.28 0.06,-0.48 0.2,-0.61 0.14,-0.13 0.36,-0.19 0.67,-0.19 0.32,0 0.55,0.06 0.68,0.18 0.14,0.12 0.21,0.33 0.21,0.62 z"
         id="path4309"
         inkscape:connector-curvature="0"
         style="fill:#222124;fill-rule:nonzero" /><path
         class="fil6"
         d="m 260.87,312.55 c -0.72,-0.59 -1.43,-0.89 -2.13,-0.89 -0.68,0 -1.2,0.27 -1.56,0.81 -0.35,0.53 -0.53,1.28 -0.53,2.24 0,1.06 0.16,1.83 0.49,2.31 0.34,0.48 0.83,0.72 1.48,0.72 0.75,0 1.5,-0.35 2.25,-1.06 l 0,-4.13 z m 1.36,6.23 c 0,1.1 -0.27,1.93 -0.82,2.47 -0.55,0.55 -1.46,0.82 -2.73,0.82 -1.21,0 -2.21,-0.26 -3,-0.77 l 0.5,-1.1 c 0.71,0.49 1.55,0.74 2.5,0.74 0.77,0 1.33,-0.16 1.67,-0.48 0.35,-0.33 0.52,-0.86 0.52,-1.6 l 0,-0.97 c -0.31,0.3 -0.68,0.55 -1.11,0.76 -0.43,0.2 -0.9,0.31 -1.4,0.31 -1.01,0 -1.79,-0.36 -2.32,-1.09 -0.53,-0.72 -0.79,-1.76 -0.79,-3.13 0,-1.34 0.29,-2.39 0.89,-3.15 0.59,-0.75 1.4,-1.13 2.43,-1.13 0.84,0 1.6,0.3 2.3,0.91 l 0,-0.68 1.36,0 0,8.09 z"
         id="path4311"
         inkscape:connector-curvature="0"
         style="fill:#222124;fill-rule:nonzero" /><path
         class="fil6"
         d="m 266.12,310.69 1.36,0 0,8.27 -1.36,0 0,-8.27 z m 1.57,-2.09 c 0,0.31 -0.07,0.53 -0.21,0.64 -0.14,0.11 -0.37,0.17 -0.68,0.17 -0.33,0 -0.56,-0.07 -0.69,-0.21 -0.12,-0.14 -0.18,-0.34 -0.18,-0.6 0,-0.28 0.06,-0.48 0.2,-0.61 0.14,-0.13 0.36,-0.19 0.67,-0.19 0.32,0 0.55,0.06 0.69,0.18 0.13,0.12 0.2,0.33 0.2,0.62 z"
         id="path4313"
         inkscape:connector-curvature="0"
         style="fill:#222124;fill-rule:nonzero" /><path
         class="fil6"
         d="m 275.49,318.96 c -0.52,0.16 -1.04,0.24 -1.56,0.24 -0.84,0 -1.44,-0.22 -1.81,-0.66 -0.36,-0.44 -0.54,-1.13 -0.54,-2.08 l 0,-4.63 -1.18,0 0,-1.14 1.18,0 0,-2.3 1.35,0 0,2.3 2.1,0 0,1.14 -2.1,0 0,4.37 c 0,0.67 0.07,1.15 0.2,1.43 0.14,0.29 0.44,0.44 0.9,0.44 0.4,0 0.77,-0.08 1.11,-0.22 l 0.35,1.11 z"
         id="path4315"
         inkscape:connector-curvature="0"
         style="fill:#222124;fill-rule:nonzero" /><path
         class="fil6"
         d="m 283.17,314.77 -1.33,0.12 c -0.89,0.08 -1.53,0.26 -1.89,0.53 -0.37,0.27 -0.56,0.66 -0.56,1.18 0,0.5 0.13,0.85 0.37,1.07 0.25,0.21 0.62,0.32 1.12,0.32 0.2,0 0.4,-0.04 0.6,-0.12 0.2,-0.07 0.4,-0.17 0.59,-0.28 0.2,-0.11 0.38,-0.24 0.57,-0.39 0.18,-0.14 0.35,-0.28 0.53,-0.42 l 0,-2.01 z m 0,4.19 0,-1.04 c -0.42,0.37 -0.84,0.68 -1.27,0.92 -0.43,0.24 -0.91,0.36 -1.44,0.36 -0.79,0 -1.4,-0.24 -1.82,-0.72 -0.43,-0.48 -0.65,-1.1 -0.65,-1.85 0,-0.56 0.12,-1.04 0.34,-1.41 0.22,-0.38 0.54,-0.67 0.97,-0.89 0.42,-0.22 1.03,-0.37 1.84,-0.47 l 2.03,-0.18 0,-0.4 c 0,-0.64 -0.18,-1.07 -0.53,-1.3 -0.36,-0.23 -0.85,-0.35 -1.47,-0.35 -0.56,0 -0.99,0.1 -1.29,0.29 -0.3,0.2 -0.52,0.41 -0.65,0.63 l -1.11,-0.67 c 0.25,-0.46 0.64,-0.81 1.15,-1.06 0.52,-0.24 1.16,-0.36 1.93,-0.36 1.19,0 2.04,0.21 2.55,0.64 0.52,0.43 0.77,1.18 0.77,2.24 l 0,5.62 -1.35,0 z"
         id="path4317"
         inkscape:connector-curvature="0"
         style="fill:#222124;fill-rule:nonzero" /><polygon
         class="fil6"
         points="289.77,318.96 288.41,318.96 288.41,307.23 289.77,307.23 "
         id="polygon4319"
         style="fill:#222124;fill-rule:nonzero" /></g></g></svg>