<?xml version="1.0" encoding="UTF-8" standalone="no"?>
<!-- Creator: CorelDRAW -->

<svg
   xmlns:dc="http://purl.org/dc/elements/1.1/"
   xmlns:cc="http://creativecommons.org/ns#"
   xmlns:rdf="http://www.w3.org/1999/02/22-rdf-syntax-ns#"
   xmlns:svg="http://www.w3.org/2000/svg"
   xmlns="http://www.w3.org/2000/svg"
   xmlns:sodipodi="http://sodipodi.sourceforge.net/DTD/sodipodi-0.dtd"
   xmlns:inkscape="http://www.inkscape.org/namespaces/inkscape"
   xml:space="preserve"
   width="500"
   height="408"
   version="1.1"
   style="clip-rule:evenodd;fill-rule:evenodd;image-rendering:optimizeQuality;shape-rendering:geometricPrecision;text-rendering:geometricPrecision"
   viewBox="0 0 500 408"
   id="svg2"
   inkscape:version="0.91 r13725"
   sodipodi:docname="LogoDivina.svg"><metadata
     id="metadata45"><rdf:RDF><cc:Work
         rdf:about=""><dc:format>image/svg+xml</dc:format><dc:type
           rdf:resource="http://purl.org/dc/dcmitype/StillImage" /><dc:title></dc:title></cc:Work></rdf:RDF></metadata><sodipodi:namedview
     pagecolor="#ffffff"
     bordercolor="#666666"
     borderopacity="1"
     objecttolerance="10"
     gridtolerance="10"
     guidetolerance="10"
     inkscape:pageopacity="0"
     inkscape:pageshadow="2"
     inkscape:window-width="1536"
     inkscape:window-height="793"
     id="namedview43"
     showgrid="false"
     inkscape:zoom="0.472"
     inkscape:cx="562.5"
     inkscape:cy="250"
     inkscape:window-x="-8"
     inkscape:window-y="-8"
     inkscape:window-maximized="1"
     inkscape:current-layer="svg2" /><defs
     id="defs4"><style
       type="text/css"
       id="style6"><![CDATA[
    .fil0 {fill:#2EC7D6;fill-rule:nonzero}
   ]]></style></defs><g
     id="Camada_x0020_1"
     transform="matrix(1.2436441,0,0,1.2436441,-62.182205,-106.85622)"><metadata
       id="CorelCorpID_0Corel-Layer" /><g
       id="_2582320033536"><path
         class="fil0"
         d="m 203.4,267.22 c 11.07,-2.92 20.3,-5.81 33,-8.05 -19.11,-1.36 -31.86,-4.05 -40.16,-15.86 -11.76,-15.09 -6.09,-51.71 1.53,-71.47 7.73,-21.08 23.69,-27.47 41.2,-29.55 13.56,-1.27 26.58,1.36 36.08,5.95 -11.86,-16.55 -48.39,-21.4 -70.27,-15.44 -16.3,5.73 -24.34,14.14 -31.31,46.46 -5.98,30.51 -20,81.66 -3.41,88.44 9.53,5.91 22.73,1.94 33.34,-0.48 z"
         id="path11"
         inkscape:connector-curvature="0"
         style="fill:#2ec7d6;fill-rule:nonzero" /><path
         class="fil0"
         d="m 304.05,113.48 c 11.76,15.09 6.09,51.72 -1.52,71.48 -7.74,21.08 -23.69,27.48 -41.21,29.55 -13.56,1.28 -26.58,-1.36 -36.08,-5.95 11.86,16.54 48.39,21.39 70.25,15.44 16.32,-5.72 24.35,-14.14 31.32,-46.45 5.98,-30.52 20.01,-81.66 3.42,-88.45 -9.53,-5.91 -22.73,-1.95 -33.34,0.48 -11.07,2.92 -20.31,5.8 -32.99,8.05 19.1,1.35 31.86,4.05 40.15,15.85 z"
         id="path13"
         inkscape:connector-curvature="0"
         style="fill:#2ec7d6;fill-rule:nonzero" /><path
         class="fil0"
         d="m 185.23,124.5 c 15.09,-11.75 51.72,-6.09 71.47,1.53 21.08,7.73 27.48,23.68 29.55,41.19 1.28,13.57 -1.35,26.58 -5.95,36.08 16.54,-11.86 21.39,-48.38 15.44,-70.25 -5.73,-16.32 -14.13,-24.35 -46.46,-31.32 -30.5,-5.98 -81.64,-20 -88.44,-3.42 -5.9,9.53 -1.94,22.74 0.48,33.34 2.92,11.07 5.81,20.31 8.05,33 1.36,-19.1 4.07,-31.86 15.86,-40.15 z"
         id="path15"
         inkscape:connector-curvature="0"
         style="fill:#2ec7d6;fill-rule:nonzero" /><path
         class="fil0"
         d="m 339.44,258.48 c 5.91,-9.52 1.95,-22.73 -0.47,-33.33 -2.92,-11.08 -5.81,-20.31 -8.06,-33 -1.35,19.1 -4.05,31.87 -15.85,40.16 -15.09,11.75 -51.72,6.09 -71.48,-1.53 -21.07,-7.73 -27.47,-23.69 -29.54,-41.21 -1.28,-13.55 1.35,-26.57 5.94,-36.08 -16.54,11.86 -21.39,48.4 -15.44,70.27 5.73,16.31 14.14,24.35 46.46,31.31 30.51,5.99 81.65,20.01 88.44,3.41 z"
         id="path17"
         inkscape:connector-curvature="0"
         style="fill:#2ec7d6;fill-rule:nonzero" /><polygon
         class="fil0"
         points="155.94,307.05 140.1,307.05 140.1,369.43 155.94,369.43 "
         id="polygon19"
         style="fill:#2ec7d6;fill-rule:nonzero" /><path
         class="fil0"
         d="m 228.22,307.75 c 0,2.69 -0.29,6.02 -0.53,10.01 -0.24,3.99 -0.74,8.22 -1.33,12.68 -0.59,4.47 -1.45,8.95 -2.47,13.45 -1.03,4.51 -2.36,8.56 -3.93,12.15 -1.59,3.6 -3.49,6.52 -5.7,8.77 -2.22,2.25 -4.83,3.38 -7.83,3.38 -3.01,0 -5.61,-1.17 -7.83,-3.5 -2.21,-2.33 -4.11,-5.35 -5.69,-9.06 -1.58,-3.72 -2.86,-7.88 -3.85,-12.51 -0.99,-4.62 -1.77,-9.16 -2.37,-13.62 -0.59,-4.47 -1.22,-8.63 -1.46,-12.51 -0.24,-3.87 -0.58,-6.95 -0.58,-9.24 l 0,-0.7 -15.2,0 c 0,4.95 0.41,9.73 1.24,14.75 0.83,5.02 2,9.89 3.5,14.63 1.5,4.74 3.34,9.23 5.51,13.45 2.17,4.23 4.64,7.92 7.41,11.08 2.76,3.16 5.76,5.65 9,7.47 3.24,1.81 6.68,2.72 10.31,2.72 3.64,0 7.09,-0.87 10.37,-2.61 3.28,-1.73 6.28,-4.12 9.01,-7.17 2.72,-3.04 5.19,-6.61 7.41,-10.72 2.21,-4.11 4.06,-8.53 5.57,-13.27 1.5,-4.74 2.66,-9.69 3.49,-14.87 0.83,-5.17 1.25,-10.51 1.25,-15.46 l -15.3,0 0,0.7 z"
         id="path21"
         inkscape:connector-curvature="0"
         style="fill:#2ec7d6;fill-rule:nonzero" /><polygon
         class="fil0"
         points="271.78,307.05 255.94,307.05 255.94,369.43 271.78,369.43 "
         id="polygon23"
         style="fill:#2ec7d6;fill-rule:nonzero" /><path
         class="fil0"
         d="m 350.65,313.08 c -6.16,-5.29 -15.49,-7.94 -27.97,-7.94 -7.75,0 -14.19,0.84 -19.32,2.82 -0.24,0.16 -0.5,0.08 -0.77,0.08 l -0.77,0 c -0.87,0 -1.64,0.02 -2.31,-0.49 -0.68,-0.51 -1.49,-0.5 -2.43,-0.5 l -11.44,0 0,62.38 15.85,0 0,-33.12 c 0,-9.56 1.72,-16.59 5.44,-21.09 3.71,-4.51 8.93,-6.76 15.81,-6.76 7.19,0 12.5,2.33 16.05,6.99 3.56,4.67 5.27,12.01 5.27,22.04 l 0,31.94 15.84,0 0,-31.22 c 0,-11.46 -3.09,-19.83 -9.25,-25.13 z"
         id="path25"
         inkscape:connector-curvature="0"
         style="fill:#2ec7d6;fill-rule:nonzero" /><path
         class="fil0"
         d="m 428.91,360.78 c -3.51,4.78 -8.9,7.17 -16.17,7.17 -7.27,0 -12.66,-2.39 -16.18,-7.17 -3.51,-4.78 -5.27,-12.3 -5.27,-22.57 0,-10.27 1.78,-17.8 5.33,-22.58 3.56,-4.78 8.93,-7.17 16.12,-7.17 7.27,0 12.66,2.37 16.17,7.11 3.52,4.74 5.28,12.29 5.28,22.64 0,10.27 -1.76,17.79 -5.28,22.57 z m 9.42,-53.73 c -0.87,0 -1.64,0.48 -2.31,0.99 -0.67,0.52 -1.44,0.99 -2.31,0.99 l -0.77,0 c -0.28,0 -0.53,-0.18 -0.77,-0.34 -5.21,-1.98 -11.69,-3.02 -19.43,-3.02 -12.49,0 -21.79,2.6 -27.91,7.85 -6.12,5.26 -9.18,13.64 -9.18,25.17 0,11.46 3.02,19.78 9.06,24.95 6.05,5.18 15.11,7.77 27.2,7.77 l 0.83,0 c 7.5,0 13.98,-0.93 19.43,-2.91 0.24,-0.16 0.49,-0.06 0.77,-0.06 l 0.77,0 c 0.87,0 1.64,-0.02 2.31,0.49 0.67,0.52 1.44,0.5 2.31,0.5 l 11.67,0 0,-62.38 -11.67,0 z"
         id="path27"
         inkscape:connector-curvature="0"
         style="fill:#2ec7d6;fill-rule:nonzero" /><path
         class="fil0"
         d="m 103.71,360.65 c -3.51,4.78 -8.9,7.17 -16.17,7.17 -7.27,0 -12.66,-2.39 -16.18,-7.17 -3.51,-4.78 -5.27,-12.31 -5.27,-22.58 0,-10.35 1.76,-17.89 5.27,-22.63 3.52,-4.74 8.91,-7.11 16.18,-7.11 7.19,0 12.56,2.39 16.11,7.17 3.56,4.78 5.34,12.3 5.34,22.57 0,10.27 -1.76,17.8 -5.28,22.58 z m 11.74,-47.29 c -6.13,-5.25 -15.43,-7.88 -27.91,-7.88 -7.74,0 -14.22,1.17 -19.44,3.14 -0.23,0.16 -0.49,0.41 -0.77,0.41 l -0.77,0 c -0.87,0 -1.64,-0.47 -2.31,-0.99 -0.67,-0.51 -1.44,-0.99 -2.31,-0.99 l -11.94,0 0,62.38 11.94,0 c 0.87,0 1.64,-0.48 2.31,-0.99 0.67,-0.51 1.44,-0.99 2.31,-0.99 l 0.77,0 c 0.28,0 0.54,0.4 0.77,0.56 5.45,1.97 11.93,3.4 19.44,3.4 l 0.83,0 c 12.08,0 21.15,-2.66 27.19,-7.84 6.05,-5.17 9.07,-13.53 9.07,-24.99 0,-11.53 -3.06,-19.96 -9.18,-25.22 z"
         id="path29"
         inkscape:connector-curvature="0"
         style="fill:#2ec7d6;fill-rule:nonzero" /><path
         class="fil0"
         d="m 134.02,400.82 c 3.82,0 6.18,-2.28 6.18,-6.06 0,-3.79 -2.36,-6.07 -6.18,-6.07 l -8.24,0 0,12.13 8.24,0 z m 0.23,-14.81 c 5.52,0 8.91,3.27 8.91,8.75 0,5.47 -3.39,8.7 -8.91,8.7 l -8.47,0 0,9.74 c 0,0.59 -0.16,0.78 -0.75,0.78 l -1.3,0 c -0.59,0 -0.79,-0.19 -0.79,-0.78 l 0,-26.4 c 0,-0.59 0.2,-0.79 0.79,-0.79 l 10.52,0 z"
         id="path31"
         inkscape:connector-curvature="0"
         style="fill:#2ec7d6;fill-rule:nonzero" /><path
         class="fil0"
         d="m 187.09,386.01 c 0.51,0 0.75,0.28 0.75,0.79 l 0,26.4 c 0,0.51 -0.24,0.78 -0.75,0.78 l -1.3,0 c -0.59,0 -0.79,-0.19 -0.79,-0.78 l 0,-12.06 -15.01,0 0,12.06 c 0,0.59 -0.16,0.78 -0.75,0.78 l -1.3,0 c -0.59,0 -0.79,-0.19 -0.79,-0.78 l 0,-26.4 c 0,-0.59 0.2,-0.79 0.79,-0.79 l 1.3,0 c 0.59,0 0.75,0.2 0.75,0.79 l 0,11.66 15.01,0 0,-11.66 c 0,-0.59 0.2,-0.79 0.79,-0.79 l 1.3,0 z"
         id="path33"
         inkscape:connector-curvature="0"
         style="fill:#2ec7d6;fill-rule:nonzero" /><path
         class="fil0"
         d="m 224.13,391.33 c -0.35,-1.07 -0.55,-1.97 -0.55,-2.72 l -0.2,0 c 0,0.83 -0.16,1.73 -0.47,2.72 l -4.77,12.1 10.72,0 -4.73,-12.1 z m 11.59,21.91 c 0.19,0.51 0.04,0.75 -0.56,0.75 l -1.14,0 c -0.83,0 -1.3,-0.24 -1.42,-0.71 l -2.95,-7.49 -12.34,0 -2.95,7.49 c -0.16,0.59 -0.43,0.71 -1.38,0.71 l -1.06,0 c -0.56,0 -0.71,-0.24 -0.52,-0.75 l 10.56,-26.68 c 0.16,-0.43 0.48,-0.67 0.99,-0.67 l 1.18,0 c 0.51,0 0.87,0.2 1.03,0.63 l 10.56,26.72 z"
         id="path35"
         inkscape:connector-curvature="0"
         style="fill:#2ec7d6;fill-rule:nonzero" /><path
         class="fil0"
         d="m 270.31,388.69 -8.82,0 0,10.87 8.82,0 c 3.51,0 5.6,-1.93 5.6,-5.39 0,-3.51 -2.01,-5.48 -5.6,-5.48 z m 0.28,-2.68 c 5.2,0 8.27,2.99 8.27,8.16 0,4.29 -2.36,7.09 -6.34,7.72 1.02,0.47 1.89,1.38 2.56,2.72 l 4.41,8.59 c 0.36,0.51 0.2,0.78 -0.39,0.78 l -1.3,0 c -0.83,0 -1.34,-0.23 -1.54,-0.7 l -3.82,-7.61 c -1.26,-2.52 -2.6,-3.43 -5.63,-3.43 l -5.32,0 0,10.96 c 0,0.59 -0.16,0.78 -0.75,0.78 l -1.3,0 c -0.59,0 -0.79,-0.19 -0.79,-0.78 l 0,-26.4 c 0,-0.59 0.2,-0.79 0.79,-0.79 l 11.15,0 z"
         id="path37"
         inkscape:connector-curvature="0"
         style="fill:#2ec7d6;fill-rule:nonzero" /><path
         class="fil0"
         d="m 328.35,386.01 c 0.59,0 0.79,0.2 0.79,0.79 l 0,26.4 c 0,0.59 -0.2,0.78 -0.79,0.78 l -1.18,0 c -0.59,0 -0.79,-0.19 -0.79,-0.78 l 0.04,-16.08 c 0,-2.4 0.16,-4.73 0.48,-6.97 l -0.16,0 c -0.83,2.01 -1.86,4.05 -3.04,6.14 l -5.99,10.56 c -0.19,0.4 -0.47,0.59 -0.9,0.59 l -0.79,0 c -0.43,0 -0.75,-0.19 -0.95,-0.59 l -6.06,-10.67 c -0.99,-1.66 -1.93,-3.67 -2.88,-6.07 l -0.16,0 c 0.28,2.4 0.44,4.73 0.44,7.05 l 0,16.04 c 0,0.59 -0.2,0.78 -0.79,0.78 l -1.11,0 c -0.59,0 -0.78,-0.19 -0.78,-0.78 l 0,-26.4 c 0,-0.59 0.19,-0.79 0.78,-0.79 l 1.03,0 c 0.51,0 0.87,0.2 1.1,0.63 l 9.77,17.3 9.7,-17.26 c 0.31,-0.59 0.47,-0.67 1.1,-0.67 l 1.14,0 z"
         id="path39"
         inkscape:connector-curvature="0"
         style="fill:#2ec7d6;fill-rule:nonzero" /><path
         class="fil0"
         d="m 365.39,391.33 c -0.35,-1.07 -0.55,-1.97 -0.55,-2.72 l -0.2,0 c 0,0.83 -0.15,1.73 -0.47,2.72 l -4.77,12.1 10.72,0 -4.73,-12.1 z m 11.59,21.91 c 0.19,0.51 0.04,0.75 -0.56,0.75 l -1.14,0 c -0.83,0 -1.3,-0.24 -1.42,-0.71 l -2.95,-7.49 -12.33,0 -2.96,7.49 c -0.16,0.59 -0.43,0.71 -1.38,0.71 l -1.06,0 c -0.55,0 -0.71,-0.24 -0.52,-0.75 l 10.56,-26.68 c 0.16,-0.43 0.48,-0.67 0.99,-0.67 l 1.18,0 c 0.51,0 0.87,0.2 1.03,0.63 l 10.56,26.72 z"
         id="path41"
         inkscape:connector-curvature="0"
         style="fill:#2ec7d6;fill-rule:nonzero" /></g></g></svg>