<?xml version="1.0" encoding="UTF-8" standalone="no"?>
<!-- Created with Inkscape (http://www.inkscape.org/) -->

<svg
   xmlns:dc="http://purl.org/dc/elements/1.1/"
   xmlns:cc="http://creativecommons.org/ns#"
   xmlns:rdf="http://www.w3.org/1999/02/22-rdf-syntax-ns#"
   xmlns:svg="http://www.w3.org/2000/svg"
   xmlns="http://www.w3.org/2000/svg"
   xmlns:xlink="http://www.w3.org/1999/xlink"
   xmlns:sodipodi="http://sodipodi.sourceforge.net/DTD/sodipodi-0.dtd"
   xmlns:inkscape="http://www.inkscape.org/namespaces/inkscape"
   width="210mm"
   height="120mm"
   viewBox="0 0 210 120"
   version="1.1"
   id="svg5"
   xml:space="preserve"
   inkscape:version="0.91 r13725"
   sodipodi:docname="LogoMPC.svg"><metadata
     id="metadata4961"><rdf:RDF><cc:Work
         rdf:about=""><dc:format>image/svg+xml</dc:format><dc:type
           rdf:resource="http://purl.org/dc/dcmitype/StillImage" /><dc:title></dc:title></cc:Work></rdf:RDF></metadata><sodipodi:namedview
     id="namedview7"
     pagecolor="#505050"
     bordercolor="#eeeeee"
     borderopacity="1"
     inkscape:showpageshadow="0"
     inkscape:pageopacity="0"
     inkscape:pagecheckerboard="0"
     inkscape:deskcolor="#505050"
     inkscape:document-units="mm"
     showgrid="false"
     inkscape:zoom="0.45185038"
     inkscape:cx="685.73183"
     inkscape:cy="685.48001"
     inkscape:window-width="1536"
     inkscape:window-height="793"
     inkscape:window-x="-8"
     inkscape:window-y="-8"
     inkscape:window-maximized="1"
     inkscape:current-layer="Camada_x0020_1" /><defs
     id="defs2"><style
       type="text/css"
       id="style9"><![CDATA[
    .fil0 {fill:#2EC7D6;fill-rule:nonzero}
   ]]></style><style
       type="text/css"
       id="style178"><![CDATA[
    .fil7 {fill:#F1BC48}
    .fil4 {fill:#FFCA49;fill-rule:nonzero}
    .fil5 {fill:#37C0CA;fill-rule:nonzero}
    .fil0 {fill:#4756A3;fill-rule:nonzero}
    .fil6 {fill:#222124;fill-rule:nonzero}
    .fil9 {fill:#4D4F93;fill-rule:nonzero}
    .fil8 {fill:#F1BC48;fill-rule:nonzero}
    .fil11 {fill:#FAA836;fill-rule:nonzero}
    .fil10 {fill:#FEFEFE;fill-rule:nonzero}
    .fil12 {fill:white;fill-rule:nonzero}
    .fil3 {fill:url(#id0)}
    .fil2 {fill:url(#id1)}
    .fil1 {fill:url(#id2)}
   ]]></style><linearGradient
       id="id0"
       gradientUnits="userSpaceOnUse"
       x1="-138.09"
       y1="-1000.09"
       x2="-138.09"
       y2="-1025.1801"><stop
         offset="0"
         style="stop-opacity:1; stop-color:#29ACCA"
         id="stop180" /><stop
         offset="0.592157"
         style="stop-opacity:1; stop-color:#30B6CA"
         id="stop182" /><stop
         offset="0.988235"
         style="stop-opacity:1; stop-color:#37C0CA"
         id="stop184" /><stop
         offset="1"
         style="stop-opacity:1; stop-color:#37C0CA"
         id="stop186" /></linearGradient><linearGradient
       id="id1"
       gradientUnits="userSpaceOnUse"
       xlink:href="#id0"
       x1="-64.269997"
       y1="-931.40997"
       x2="-64.269997"
       y2="-1031.9" /><linearGradient
       id="id2"
       gradientUnits="userSpaceOnUse"
       xlink:href="#id0"
       x1="-138.13"
       y1="-931.40997"
       x2="-138.13"
       y2="-981.34998" /><style
       type="text/css"
       id="style665"><![CDATA[
    .fil4 {fill:#FFCA49;fill-rule:nonzero}
    .fil5 {fill:#37C0CA;fill-rule:nonzero}
    .fil0 {fill:#4756A3;fill-rule:nonzero}
    .fil6 {fill:#222124;fill-rule:nonzero}
    .fil2 {fill:url(#id0)}
    .fil3 {fill:url(#id1)}
    .fil1 {fill:url(#id2)}
   ]]></style><linearGradient
       id="id0-6"
       gradientUnits="userSpaceOnUse"
       x1="264.20999"
       y1="294.85999"
       x2="264.20999"
       y2="194.37"><stop
         offset="0"
         style="stop-opacity:1; stop-color:#29ACCA"
         id="stop667" /><stop
         offset="0.592157"
         style="stop-opacity:1; stop-color:#30B6CA"
         id="stop669" /><stop
         offset="0.988235"
         style="stop-opacity:1; stop-color:#37C0CA"
         id="stop671" /><stop
         offset="1"
         style="stop-opacity:1; stop-color:#37C0CA"
         id="stop673" /></linearGradient><linearGradient
       id="id1-8"
       gradientUnits="userSpaceOnUse"
       xlink:href="#id0-6"
       x1="190.39"
       y1="226.17999"
       x2="190.39"
       y2="201.09" /><linearGradient
       id="id2-4"
       gradientUnits="userSpaceOnUse"
       xlink:href="#id0-6"
       x1="190.35001"
       y1="294.85999"
       x2="190.35001"
       y2="244.92" /><style
       type="text/css"
       id="style892"><![CDATA[
    .fil7 {fill:#F1BC48}
    .fil4 {fill:#FFCA49;fill-rule:nonzero}
    .fil5 {fill:#37C0CA;fill-rule:nonzero}
    .fil0 {fill:#4756A3;fill-rule:nonzero}
    .fil6 {fill:#222124;fill-rule:nonzero}
    .fil9 {fill:#4D4F93;fill-rule:nonzero}
    .fil8 {fill:#F1BC48;fill-rule:nonzero}
    .fil11 {fill:#FAA836;fill-rule:nonzero}
    .fil10 {fill:#FEFEFE;fill-rule:nonzero}
    .fil12 {fill:white;fill-rule:nonzero}
    .fil3 {fill:url(#id0)}
    .fil2 {fill:url(#id1)}
    .fil1 {fill:url(#id2)}
   ]]></style></defs><g
     inkscape:label="Camada 1"
     inkscape:groupmode="layer"
     id="layer1"
     transform="translate(0,-177)"><g
       style="clip-rule:evenodd;fill-rule:evenodd;image-rendering:optimizeQuality;shape-rendering:geometricPrecision;text-rendering:geometricPrecision"
       id="g1316"
       transform="matrix(0.26458333,0,0,0.26458333,58.921796,222.26498)"><g
         id="Camada_x0020_1"
         inkscape:label="Camada 1"
         inkscape:groupmode="layer"><metadata
           id="CorelCorpID_0Corel-Layer" /><path
           class="fil7"
           d="m -314.49,-406.79 c -1.42,0.56 -2.26,1.17 -3.04,1.12 -0.68,-0.02 -1.27,-0.83 -1.91,-1.28 0.55,-0.28 1.12,-0.83 1.65,-0.78 0.92,0.06 1.79,0.48 3.3,0.94 z"
           id="path1037"
           inkscape:connector-curvature="0"
           style="fill:#f1bc48" /><polygon
           class="fil7"
           points="-319.9,-456.81 -319.9,-457.09 -306.52,-457.09 -306.51,-456.81 "
           id="polygon1039"
           style="fill:#f1bc48" /><g
           id="_2582702173216"
           transform="matrix(2.1504428,0,0,2.1504428,-366.81923,-480.19146)"><path
             class="fil7"
             d="m 403.74,215.84 4.62,0 0,0.12 c -1.54,0.07 -3.08,0.07 -4.62,0.07 z"
             id="path1041"
             inkscape:connector-curvature="0"
             style="fill:#f1bc48" /><path
             class="fil7"
             d="m 338.84,208.48 c 1.76,0.06 3.51,0.13 5.26,0.2 l 0,0.42 -5.1,0 c -0.06,-0.21 -0.1,-0.42 -0.16,-0.62 z"
             id="path1043"
             inkscape:connector-curvature="0"
             style="fill:#f1bc48" /><path
             class="fil7"
             d="m 402.16,198.18 c -25.35,-1.57 -50.71,-3.13 -76.07,-4.68 -8.61,-0.52 -17.22,-0.96 -25.82,-1.49 -1.15,-0.08 -2.24,-0.52 -3.37,-0.78 1.22,-0.29 2.48,-0.88 3.69,-0.82 6.72,0.34 13.43,0.85 20.16,1.26 26.86,1.65 53.73,3.29 80.6,4.95 0.36,0.02 0.71,0.25 1.06,0.39 -0.08,0.39 -0.16,0.78 -0.25,1.17 z"
             id="path1045"
             inkscape:connector-curvature="0"
             style="fill:#f1bc48" /><path
             class="fil7"
             d="m 103.52,254.13 c 30.55,-0.96 61.1,-2.29 91.67,-2.74 25.53,-0.38 51.07,0.2 76.61,0.53 17.28,0.21 34.56,0.46 51.82,1.16 11.76,0.49 23.44,1.81 35.17,2.74 0.2,0.03 0.48,0.02 0.6,0.1 0.57,0.41 1.08,0.86 1.61,1.29 -0.6,0.14 -1.21,0.43 -1.78,0.4 -7.8,-0.33 -15.58,-0.79 -23.38,-1.06 -22.76,-0.8 -45.52,-1.81 -68.28,-2.26 -22.78,-0.44 -45.57,-0.46 -68.36,-0.39 -16.04,0.06 -32.07,0.7 -48.12,0.85 -15.82,0.16 -31.65,0.03 -47.48,0.03 -0.02,-0.21 -0.05,-0.43 -0.08,-0.65 z"
             id="path1047"
             inkscape:connector-curvature="0"
             style="fill:#f1bc48" /><polygon
             class="fil8"
             points="389.39,197.1 389.27,197.09 "
             id="polygon1049"
             style="fill:#f1bc48;fill-rule:nonzero" /><path
             class="fil8"
             d="m 242.99,268.94 c 9.82,-0.4 44.16,-0.76 108.57,-18.78 19.99,-5.14 37.98,-9.75 37.98,-9.75 l -43.37,1.15 c 0,0 -21.9,-26.19 -62.25,-14.55 -38.29,11.05 -40.93,41.93 -40.93,41.93 z"
             id="path1051"
             inkscape:connector-curvature="0"
             style="fill:#f1bc48;fill-rule:nonzero" /><polygon
             class="fil8"
             points="345.44,241.97 349.35,250.47 389.77,240.61 380.72,223.45 "
             id="polygon1053"
             style="fill:#f1bc48;fill-rule:nonzero" /><path
             class="fil9"
             d="m 98.78,348.48 -1.72,-4.62 -1.68,4.62 z m 4.62,4.92 -2.73,0 -1.09,-2.82 -4.97,0 -1.03,2.82 -2.67,0 4.85,-12.44 2.66,0 z"
             id="path1055"
             inkscape:connector-curvature="0"
             style="fill:#4d4f93;fill-rule:nonzero" /><path
             class="fil9"
             d="m 107.25,346.22 1.86,0 c 1.21,0 1.96,-0.05 2.26,-0.15 0.3,-0.1 0.54,-0.28 0.71,-0.53 0.16,-0.25 0.25,-0.56 0.25,-0.93 0,-0.42 -0.11,-0.76 -0.33,-1.02 -0.23,-0.25 -0.54,-0.42 -0.95,-0.48 -0.21,-0.03 -0.82,-0.05 -1.83,-0.05 l -1.97,0 z m -2.51,7.18 0,-12.44 5.29,0 c 1.33,0 2.3,0.11 2.9,0.33 0.6,0.23 1.08,0.63 1.45,1.2 0.36,0.57 0.54,1.22 0.54,1.96 0,0.93 -0.28,1.7 -0.82,2.31 -0.55,0.61 -1.37,0.99 -2.47,1.15 0.55,0.32 1,0.66 1.35,1.04 0.35,0.38 0.83,1.06 1.43,2.02 l 1.52,2.43 -3.01,0 -1.81,-2.71 c -0.65,-0.96 -1.09,-1.57 -1.33,-1.83 -0.23,-0.25 -0.49,-0.42 -0.75,-0.51 -0.27,-0.1 -0.69,-0.14 -1.27,-0.14 l -0.51,0 0,5.19 z"
             id="path1057"
             inkscape:connector-curvature="0"
             style="fill:#4d4f93;fill-rule:nonzero" /><path
             class="fil9"
             d="m 125.28,350.41 c 0.32,-0.38 0.57,-0.84 0.73,-1.38 0.16,-0.54 0.24,-1.15 0.24,-1.85 0,-1.44 -0.32,-2.51 -0.95,-3.22 -0.63,-0.71 -1.46,-1.07 -2.49,-1.07 -1.02,0 -1.85,0.36 -2.49,1.07 -0.64,0.72 -0.95,1.79 -0.95,3.22 0,1.45 0.31,2.54 0.95,3.26 0.64,0.72 1.44,1.09 2.42,1.09 0.36,0 0.7,-0.06 1.02,-0.18 -0.51,-0.34 -1.02,-0.6 -1.55,-0.78 l 0.7,-1.44 c 0.83,0.29 1.62,0.71 2.37,1.28 z m 2.02,1.41 c 0.62,0.44 1.29,0.79 2.01,1.05 l -0.92,1.78 c -0.38,-0.11 -0.75,-0.27 -1.11,-0.47 -0.08,-0.04 -0.64,-0.41 -1.68,-1.1 -0.81,0.36 -1.71,0.53 -2.7,0.53 -1.92,0 -3.41,-0.56 -4.5,-1.69 -1.08,-1.12 -1.62,-2.7 -1.62,-4.74 0,-2.03 0.54,-3.61 1.63,-4.74 1.08,-1.13 2.56,-1.69 4.42,-1.69 1.84,0 3.31,0.56 4.39,1.69 1.08,1.13 1.62,2.71 1.62,4.74 0,1.07 -0.15,2.02 -0.45,2.83 -0.23,0.63 -0.59,1.23 -1.09,1.81 z"
             id="path1059"
             inkscape:connector-curvature="0"
             style="fill:#4d4f93;fill-rule:nonzero" /><path
             class="fil9"
             d="m 130.79,340.96 2.51,0 0,6.74 c 0,1.07 0.03,1.76 0.1,2.08 0.1,0.51 0.36,0.92 0.77,1.22 0.4,0.31 0.95,0.47 1.65,0.47 0.72,0 1.25,-0.15 1.62,-0.44 0.36,-0.29 0.58,-0.65 0.65,-1.07 0.07,-0.43 0.11,-1.13 0.11,-2.12 l 0,-6.88 2.51,0 0,6.53 c 0,1.5 -0.06,2.55 -0.2,3.17 -0.14,0.62 -0.39,1.14 -0.75,1.56 -0.37,0.43 -0.85,0.76 -1.47,1.02 -0.61,0.25 -1.4,0.37 -2.39,0.37 -1.19,0 -2.09,-0.13 -2.7,-0.41 -0.62,-0.27 -1.1,-0.63 -1.46,-1.07 -0.36,-0.44 -0.59,-0.9 -0.7,-1.38 -0.17,-0.71 -0.25,-1.76 -0.25,-3.15 z"
             id="path1061"
             inkscape:connector-curvature="0"
             style="fill:#4d4f93;fill-rule:nonzero" /><polygon
             class="fil9"
             points="143.28,353.4 145.8,353.4 145.8,340.96 143.28,340.96 "
             id="polygon1063"
             style="fill:#4d4f93;fill-rule:nonzero" /><path
             class="fil9"
             d="m 150.69,343.06 0,8.24 1.88,0 c 0.7,0 1.21,-0.03 1.52,-0.11 0.41,-0.11 0.74,-0.28 1.01,-0.52 0.27,-0.24 0.49,-0.65 0.66,-1.2 0.17,-0.56 0.26,-1.32 0.26,-2.28 0,-0.96 -0.09,-1.7 -0.26,-2.22 -0.17,-0.51 -0.41,-0.91 -0.71,-1.2 -0.31,-0.29 -0.69,-0.49 -1.16,-0.59 -0.35,-0.08 -1.04,-0.12 -2.07,-0.12 z m -2.51,-2.1 4.59,0 c 1.04,0 1.83,0.08 2.37,0.24 0.73,0.21 1.36,0.59 1.88,1.14 0.52,0.55 0.91,1.22 1.19,2.02 0.27,0.79 0.4,1.77 0.4,2.94 0,1.02 -0.12,1.91 -0.38,2.65 -0.31,0.9 -0.75,1.64 -1.33,2.2 -0.44,0.42 -1.03,0.75 -1.77,0.99 -0.55,0.17 -1.29,0.26 -2.22,0.26 l -4.73,0 z"
             id="path1065"
             inkscape:connector-curvature="0"
             style="fill:#4d4f93;fill-rule:nonzero" /><polygon
             class="fil9"
             points="160.67,353.4 163.18,353.4 163.18,340.96 160.67,340.96 "
             id="polygon1067"
             style="fill:#4d4f93;fill-rule:nonzero" /><path
             class="fil9"
             d="m 167.65,347.17 c 0,1.41 0.33,2.48 0.98,3.21 0.65,0.72 1.48,1.09 2.48,1.09 1,0 1.82,-0.36 2.46,-1.09 0.65,-0.72 0.97,-1.8 0.97,-3.24 0,-1.43 -0.32,-2.49 -0.94,-3.19 -0.63,-0.71 -1.46,-1.06 -2.49,-1.06 -1.04,0 -1.87,0.36 -2.51,1.07 -0.63,0.71 -0.95,1.78 -0.95,3.21 z m -2.59,0.09 c 0,-1.27 0.19,-2.33 0.57,-3.2 0.29,-0.63 0.67,-1.2 1.16,-1.7 0.49,-0.5 1.03,-0.88 1.61,-1.12 0.77,-0.33 1.67,-0.49 2.68,-0.49 1.84,0 3.3,0.56 4.4,1.7 1.1,1.14 1.65,2.72 1.65,4.75 0,2.01 -0.54,3.58 -1.63,4.71 -1.1,1.14 -2.56,1.7 -4.38,1.7 -1.85,0 -3.32,-0.56 -4.42,-1.69 -1.09,-1.13 -1.64,-2.68 -1.64,-4.66 z"
             id="path1069"
             inkscape:connector-curvature="0"
             style="fill:#4d4f93;fill-rule:nonzero" /><path
             class="fil9"
             d="m 187.06,348.83 2.43,0.77 c -0.37,1.36 -0.99,2.37 -1.86,3.02 -0.87,0.66 -1.97,0.99 -3.31,0.99 -1.65,0 -3.01,-0.56 -4.07,-1.69 -1.06,-1.13 -1.6,-2.67 -1.6,-4.63 0,-2.07 0.54,-3.68 1.61,-4.82 1.07,-1.15 2.47,-1.72 4.21,-1.72 1.53,0 2.76,0.45 3.71,1.35 0.57,0.53 0.99,1.29 1.28,2.29 l -2.49,0.59 c -0.15,-0.64 -0.45,-1.15 -0.92,-1.53 -0.47,-0.37 -1.03,-0.56 -1.7,-0.56 -0.93,0 -1.67,0.34 -2.25,1 -0.57,0.66 -0.86,1.73 -0.86,3.21 0,1.58 0.28,2.7 0.85,3.36 0.57,0.67 1.3,1.01 2.21,1.01 0.66,0 1.24,-0.22 1.72,-0.64 0.48,-0.42 0.83,-1.09 1.04,-2 z"
             id="path1071"
             inkscape:connector-curvature="0"
             style="fill:#4d4f93;fill-rule:nonzero" /><polygon
             class="fil9"
             points="191.65,353.4 191.65,340.96 200.87,340.96 200.87,343.06 194.16,343.06 194.16,345.82 200.41,345.82 200.41,347.92 194.16,347.92 194.16,351.3 201.11,351.3 201.11,353.4 "
             id="polygon1073"
             style="fill:#4d4f93;fill-rule:nonzero" /><path
             class="fil9"
             d="m 202.6,349.35 2.45,-0.24 c 0.15,0.83 0.45,1.43 0.9,1.81 0.44,0.39 1.05,0.58 1.82,0.58 0.81,0 1.41,-0.17 1.83,-0.51 0.4,-0.35 0.61,-0.75 0.61,-1.2 0,-0.3 -0.09,-0.55 -0.26,-0.76 -0.17,-0.2 -0.47,-0.38 -0.9,-0.53 -0.3,-0.11 -0.97,-0.29 -2.01,-0.55 -1.35,-0.33 -2.3,-0.74 -2.84,-1.23 -0.76,-0.68 -1.14,-1.52 -1.14,-2.5 0,-0.64 0.17,-1.23 0.53,-1.78 0.36,-0.55 0.88,-0.97 1.56,-1.26 0.67,-0.29 1.49,-0.43 2.45,-0.43 1.56,0 2.73,0.34 3.52,1.02 0.79,0.69 1.21,1.6 1.25,2.75 l -2.52,0.11 c -0.1,-0.64 -0.33,-1.1 -0.69,-1.38 -0.35,-0.28 -0.88,-0.42 -1.59,-0.42 -0.73,0 -1.3,0.15 -1.71,0.45 -0.27,0.19 -0.4,0.45 -0.4,0.77 0,0.29 0.12,0.54 0.37,0.75 0.32,0.27 1.09,0.55 2.31,0.84 1.22,0.28 2.13,0.58 2.71,0.89 0.59,0.31 1.05,0.73 1.38,1.27 0.33,0.53 0.49,1.19 0.49,1.98 0,0.71 -0.2,1.38 -0.59,2 -0.4,0.62 -0.96,1.09 -1.68,1.39 -0.73,0.3 -1.63,0.45 -2.71,0.45 -1.57,0 -2.78,-0.36 -3.62,-1.09 -0.85,-0.73 -1.35,-1.78 -1.52,-3.18 z"
             id="path1075"
             inkscape:connector-curvature="0"
             style="fill:#4d4f93;fill-rule:nonzero" /><polygon
             class="fil9"
             points="214.84,353.4 214.84,340.96 224.06,340.96 224.06,343.06 217.35,343.06 217.35,345.82 223.6,345.82 223.6,347.92 217.35,347.92 217.35,351.3 224.3,351.3 224.3,353.4 "
             id="polygon1077"
             style="fill:#4d4f93;fill-rule:nonzero" /><path
             class="fil9"
             d="m 233.76,343.06 0,8.24 1.88,0 c 0.7,0 1.21,-0.03 1.52,-0.11 0.41,-0.11 0.74,-0.28 1.01,-0.52 0.27,-0.24 0.49,-0.65 0.66,-1.2 0.17,-0.56 0.25,-1.32 0.25,-2.28 0,-0.96 -0.08,-1.7 -0.25,-2.22 -0.17,-0.51 -0.41,-0.91 -0.71,-1.2 -0.31,-0.29 -0.7,-0.49 -1.17,-0.59 -0.35,-0.08 -1.03,-0.12 -2.06,-0.12 z m -2.51,-2.1 4.59,0 c 1.04,0 1.83,0.08 2.37,0.24 0.73,0.21 1.36,0.59 1.88,1.14 0.52,0.55 0.91,1.22 1.19,2.02 0.27,0.79 0.4,1.77 0.4,2.94 0,1.02 -0.12,1.91 -0.38,2.65 -0.31,0.9 -0.75,1.64 -1.33,2.2 -0.44,0.42 -1.03,0.75 -1.77,0.99 -0.55,0.17 -1.29,0.26 -2.22,0.26 l -4.73,0 z"
             id="path1079"
             inkscape:connector-curvature="0"
             style="fill:#4d4f93;fill-rule:nonzero" /><polygon
             class="fil9"
             points="243.81,353.4 243.81,340.96 253.04,340.96 253.04,343.06 246.33,343.06 246.33,345.82 252.57,345.82 252.57,347.92 246.33,347.92 246.33,351.3 253.28,351.3 253.28,353.4 "
             id="polygon1081"
             style="fill:#4d4f93;fill-rule:nonzero" /><path
             class="fil9"
             d="m 262.32,347.17 c 0,1.41 0.32,2.48 0.97,3.21 0.65,0.72 1.48,1.09 2.48,1.09 1,0 1.82,-0.36 2.47,-1.09 0.64,-0.72 0.96,-1.8 0.96,-3.24 0,-1.43 -0.31,-2.49 -0.94,-3.19 -0.62,-0.71 -1.45,-1.06 -2.49,-1.06 -1.03,0 -1.87,0.36 -2.5,1.07 -0.64,0.71 -0.95,1.78 -0.95,3.21 z m -2.59,0.09 c 0,-1.27 0.19,-2.33 0.57,-3.2 0.28,-0.63 0.67,-1.2 1.15,-1.7 0.49,-0.5 1.03,-0.88 1.61,-1.12 0.78,-0.33 1.67,-0.49 2.68,-0.49 1.84,0 3.31,0.56 4.41,1.7 1.1,1.14 1.65,2.72 1.65,4.75 0,2.01 -0.55,3.58 -1.64,4.71 -1.09,1.14 -2.55,1.7 -4.38,1.7 -1.85,0 -3.32,-0.56 -4.41,-1.69 -1.1,-1.13 -1.64,-2.68 -1.64,-4.66 z"
             id="path1083"
             inkscape:connector-curvature="0"
             style="fill:#4d4f93;fill-rule:nonzero" /><polygon
             class="fil9"
             points="273.83,353.4 273.83,341.06 276.34,341.06 276.34,351.3 282.58,351.3 282.58,353.4 "
             id="polygon1085"
             style="fill:#4d4f93;fill-rule:nonzero" /><polygon
             class="fil9"
             points="284.3,353.4 286.81,353.4 286.81,340.96 284.3,340.96 "
             id="polygon1087"
             style="fill:#4d4f93;fill-rule:nonzero" /><polygon
             class="fil9"
             points="291.67,340.96 296.77,349.27 296.77,340.96 299.1,340.96 299.1,353.4 296.58,353.4 291.56,345.29 291.56,353.4 289.23,353.4 289.23,340.96 "
             id="polygon1089"
             style="fill:#4d4f93;fill-rule:nonzero" /><path
             class="fil9"
             d="m 304.26,343.06 0,8.24 1.88,0 c 0.7,0 1.21,-0.03 1.52,-0.11 0.4,-0.11 0.74,-0.28 1.01,-0.52 0.27,-0.24 0.49,-0.65 0.66,-1.2 0.17,-0.56 0.25,-1.32 0.25,-2.28 0,-0.96 -0.08,-1.7 -0.25,-2.22 -0.17,-0.51 -0.41,-0.91 -0.71,-1.2 -0.31,-0.29 -0.7,-0.49 -1.17,-0.59 -0.35,-0.08 -1.03,-0.12 -2.06,-0.12 z m -2.51,-2.1 4.59,0 c 1.04,0 1.83,0.08 2.37,0.24 0.73,0.21 1.36,0.59 1.88,1.14 0.52,0.55 0.91,1.22 1.18,2.02 0.28,0.79 0.41,1.77 0.41,2.94 0,1.02 -0.13,1.91 -0.38,2.65 -0.31,0.9 -0.76,1.64 -1.33,2.2 -0.44,0.42 -1.03,0.75 -1.77,0.99 -0.55,0.17 -1.29,0.26 -2.22,0.26 l -4.73,0 z"
             id="path1091"
             inkscape:connector-curvature="0"
             style="fill:#4d4f93;fill-rule:nonzero" /><path
             class="fil9"
             d="m 320.91,348.48 -1.72,-4.62 -1.68,4.62 z m 4.62,4.92 -2.73,0 -1.09,-2.82 -4.97,0 -1.03,2.82 -2.66,0 4.84,-12.44 2.66,0 z"
             id="path1093"
             inkscape:connector-curvature="0"
             style="fill:#4d4f93;fill-rule:nonzero" /><polygon
             class="fil9"
             points="331.05,353.4 331.05,340.96 340.28,340.96 340.28,343.06 333.56,343.06 333.56,345.82 339.81,345.82 339.81,347.92 333.56,347.92 333.56,351.3 340.51,351.3 340.51,353.4 "
             id="polygon1095"
             style="fill:#4d4f93;fill-rule:nonzero" /><path
             class="fil9"
             d="m 349.99,346.22 1.86,0 c 1.21,0 1.96,-0.05 2.26,-0.15 0.3,-0.1 0.53,-0.28 0.7,-0.53 0.17,-0.25 0.26,-0.56 0.26,-0.93 0,-0.42 -0.11,-0.76 -0.34,-1.02 -0.22,-0.25 -0.54,-0.42 -0.94,-0.48 -0.21,-0.03 -0.82,-0.05 -1.84,-0.05 l -1.96,0 z m -2.51,7.18 0,-12.44 5.29,0 c 1.33,0 2.29,0.11 2.9,0.33 0.6,0.23 1.08,0.63 1.44,1.2 0.37,0.57 0.55,1.22 0.55,1.96 0,0.93 -0.28,1.7 -0.83,2.31 -0.54,0.61 -1.36,0.99 -2.46,1.15 0.55,0.32 1,0.66 1.35,1.04 0.35,0.38 0.83,1.06 1.43,2.02 l 1.52,2.43 -3.01,0 -1.81,-2.71 c -0.65,-0.96 -1.09,-1.57 -1.33,-1.83 -0.23,-0.25 -0.49,-0.42 -0.75,-0.51 -0.27,-0.1 -0.69,-0.14 -1.27,-0.14 l -0.51,0 0,5.19 z"
             id="path1097"
             inkscape:connector-curvature="0"
             style="fill:#4d4f93;fill-rule:nonzero" /><polygon
             class="fil9"
             points="360.03,353.4 360.03,340.96 369.25,340.96 369.25,343.06 362.54,343.06 362.54,345.82 368.79,345.82 368.79,347.92 362.54,347.92 362.54,351.3 369.49,351.3 369.49,353.4 "
             id="polygon1099"
             style="fill:#4d4f93;fill-rule:nonzero" /><path
             class="fil9"
             d="m 379.58,348.83 2.44,0.77 c -0.37,1.36 -1,2.37 -1.87,3.02 -0.86,0.66 -1.96,0.99 -3.3,0.99 -1.65,0 -3.01,-0.56 -4.08,-1.69 -1.06,-1.13 -1.59,-2.67 -1.59,-4.63 0,-2.07 0.53,-3.68 1.6,-4.82 1.07,-1.15 2.48,-1.72 4.22,-1.72 1.52,0 2.76,0.45 3.71,1.35 0.57,0.53 0.99,1.29 1.27,2.29 l -2.48,0.59 c -0.15,-0.64 -0.46,-1.15 -0.92,-1.53 -0.47,-0.37 -1.04,-0.56 -1.71,-0.56 -0.92,0 -1.67,0.34 -2.24,1 -0.57,0.66 -0.86,1.73 -0.86,3.21 0,1.58 0.28,2.7 0.85,3.36 0.56,0.67 1.3,1.01 2.2,1.01 0.67,0 1.25,-0.22 1.73,-0.64 0.48,-0.42 0.82,-1.09 1.03,-2 z"
             id="path1101"
             inkscape:connector-curvature="0"
             style="fill:#4d4f93;fill-rule:nonzero" /><polygon
             class="fil9"
             points="384.1,353.4 386.61,353.4 386.61,340.96 384.1,340.96 "
             id="polygon1103"
             style="fill:#4d4f93;fill-rule:nonzero" /><polygon
             class="fil9"
             points="397.55,340.96 397.55,343.06 391.53,343.06 391.53,346.01 396.73,346.01 396.73,348.11 391.53,348.11 391.53,353.4 389.02,353.4 389.02,340.96 "
             id="polygon1105"
             style="fill:#4d4f93;fill-rule:nonzero" /><polygon
             class="fil9"
             points="399.62,353.4 399.62,340.96 408.85,340.96 408.85,343.06 402.13,343.06 402.13,345.82 408.38,345.82 408.38,347.92 402.13,347.92 402.13,351.3 409.08,351.3 409.08,353.4 "
             id="polygon1107"
             style="fill:#4d4f93;fill-rule:nonzero" /><path
             class="fil9"
             d="m 427.64,240.1 c -0.6,-0.2 -1.26,-0.24 -1.89,-0.39 -1.99,-0.45 -2.7,-1.3 -1.65,-3.33 0.56,-1.09 1.03,-3.14 0.44,-3.71 -2.21,-2.13 -1.09,-3.87 0.01,-5.77 -1.93,-0.71 -3.85,-1.45 -5.79,-2.14 0.63,-0.36 1.01,-0.86 0.64,-1.84 -1.27,-3.34 0.88,-2.7 2.95,-2.65 2.9,0.09 4.17,-1.54 3.03,-4.07 -1.17,-2.61 -1.64,-5.63 -4.69,-7.31 -1.03,-0.56 -2.07,-2.54 -1.79,-3.52 0.7,-2.49 1.95,-4.9 3.4,-7.09 0.51,-0.76 2.28,-0.71 3.4,-1.2 0.63,-0.27 1.3,-0.78 1.62,-1.35 0.71,-1.2 1.16,-2.53 1.78,-3.78 2.35,-4.86 0.96,-7.93 -4.43,-9.57 -0.6,-0.18 -1.26,-0.2 -1.91,-0.32 -1.99,-0.38 -2.74,-1.21 -1.76,-3.27 0.53,-1.11 0.92,-3.17 0.31,-3.73 -2.29,-2.04 -1.23,-3.83 -0.19,-5.77 -2.74,-0.89 -5.46,-1.85 -8.22,-2.64 -2.01,-0.59 -4.11,-0.86 -6.11,-1.45 -0.86,-0.25 -1.58,-0.96 -2.37,-1.46 0.79,-0.38 1.55,-0.99 2.39,-1.14 1.75,-0.32 3.56,-0.27 5.28,-0.63 0.98,-0.22 1.85,-0.93 2.76,-1.42 -0.85,-0.43 -1.68,-1.16 -2.56,-1.26 -7.37,-0.74 -14.75,-1.56 -22.14,-2.02 -10.76,-0.68 -21.54,-1.18 -32.33,-1.57 -10.98,-0.38 -21.97,-0.52 -32.95,-0.85 -3.05,-0.07 -1.6,-1.63 -0.09,-2.62 0.38,-0.26 30.31,-0.15 33.4,-0.12 14.21,0.11 28.44,0.4 42.66,0.61 2.27,0.03 4.48,-0.08 5.7,-2.4 -4,-0.28 -7.98,-0.68 -11.99,-0.85 -18.38,-0.75 -36.79,-1.48 -55.17,-2.16 -11.95,-0.44 -23.9,-1.01 -35.85,-1.14 -34.59,-0.41 -69.17,-0.8 -103.75,-0.82 -11.59,0 -23.17,1.32 -34.78,1.72 -5.25,0.17 -53.12,1.09 -53.12,1.08 -5.47,0.04 -12,1.37 -17.67,2.01 0.75,0.43 3.23,1.85 2.97,1.71 -3.73,0.27 -7.46,0.6 -11.2,0.79 -3.21,0.17 -6.43,0.11 -9.64,0.26 -0.46,0.03 -0.88,0.68 -1.33,1.05 0.28,0.3 0.5,0.73 0.85,0.89 0.98,0.47 2.01,1.11 3.05,1.21 7.31,0.64 14.63,1.15 21.96,1.74 23.08,2.52 -6.86,1.7 -13.45,2.5 -4.62,0.22 -9.63,-2.13 -13.82,1.73 -0.23,0.22 -0.94,-0.11 -1.39,-0.01 -1.74,0.41 -3.46,0.89 -5.19,1.35 1.51,0.32 3.02,0.64 4.53,0.98 0.46,0.11 0.92,0.26 1.37,0.42 2.46,0.84 2.71,1.37 0.63,2.89 -2.85,2.1 -3.8,4.23 -1.48,7.18 0.21,0.28 0.31,1.01 0.13,1.16 -2.07,1.69 -1.25,3.44 -0.44,5.38 0.28,0.68 -0.09,2.06 -0.69,2.53 -1.53,1.22 -1.25,1.96 -0.59,3.73 1.04,2.74 2.48,4.13 5.36,4.47 0.42,0.05 0.79,0.61 1.18,0.94 -0.43,0.14 -0.86,0.35 -1.31,0.41 -0.48,0.07 -0.98,-0.03 -1.46,0.02 -1.63,0.17 -2.65,0.39 -0.82,2.05 0.68,0.62 1.01,2.21 0.7,3.11 -1,2.87 -0.92,4.77 2.42,6.38 0.96,0.47 1.65,1 2.1,1.56 -0.39,0.24 -0.77,0.5 -1.14,0.82 -0.24,0.21 -0.94,-0.15 -1.4,-0.06 -1.75,0.35 -3.49,0.77 -5.22,1.17 1.49,0.37 2.99,0.74 4.48,1.14 0.46,0.12 0.92,0.29 1.36,0.46 0.57,0.22 1.01,0.41 1.34,0.6 -0.04,0.05 -0.08,0.09 -0.12,0.13 -0.4,0.4 -0.8,0.79 -1.2,1.18 0.45,0.12 0.89,0.26 1.34,0.38 -0.22,0.19 -0.49,0.4 -0.83,0.62 -2.92,2 -3.95,4.1 -1.73,7.12 0.2,0.29 0.27,1.03 0.08,1.17 -2.13,1.62 -1.37,3.4 -0.63,5.36 0.26,0.69 -0.16,2.06 -0.77,2.5 -1.58,1.17 -1.33,1.92 -0.72,3.71 0.94,2.78 2.32,4.22 5.19,4.65 0.42,0.08 0.77,0.65 1.15,0.99 -0.44,0.13 -0.87,0.31 -1.33,0.36 -0.47,0.06 -0.97,-0.06 -1.45,-0.03 -1.64,0.11 -2.67,0.3 -0.9,2.03 0.66,0.64 0.93,2.24 0.59,3.13 -1.1,2.83 -1.08,4.73 2.2,6.46 2.65,1.4 3.16,3.2 2.04,4.88 -0.39,0.08 -0.79,0.16 -1.17,0.26 -0.42,0.11 -0.76,0.48 -1.14,0.71 l -0.19,-0.01 c 0.35,0.15 0.77,0.29 1.2,0.43 -0.26,0.24 -0.53,0.48 -0.79,0.73 0.59,0.18 1.16,0.4 1.76,0.56 0.38,0.1 0.77,0.2 1.16,0.29 0.67,2.65 2.91,2.54 5.08,2.82 0.47,0.07 0.87,0.63 1.29,0.95 -1.57,0.93 -1.61,1.4 -1.11,1.73 -0.22,0.03 -0.43,0.06 -0.65,0.07 -1.92,0.09 -4.23,-0.82 -5.72,-0.1 -2.72,1.33 1.19,3.02 0.36,5.21 -0.76,2.01 -0.82,4.82 1.79,6.97 1.9,1.56 3.94,4.3 3.86,6.45 -0.12,3.58 1.79,3.67 4.26,4.09 1.89,0.32 2.34,1.13 0.34,2.16 -1.14,0.6 -2.18,1.41 -3.38,1.82 -1.86,0.62 -3.82,0.95 -5.72,1.5 -0.24,0.06 -0.3,0.73 -0.44,1.12 1.56,0.47 1.37,1.16 0.17,1.76 -1.49,0.74 -2.17,1.12 -0.16,2.28 1.03,0.6 1.43,2.23 2.1,3.39 -1.16,0.2 -2.34,0.35 -3.47,0.6 -0.42,0.1 -0.77,0.45 -1.16,0.67 l -0.19,-0.02 c 1.12,0.54 3.1,0.98 3.17,1.63 0.4,3.18 2.78,3.11 5.07,3.49 0.46,0.09 0.85,0.66 1.26,1 -2.98,1.6 -0.66,1.87 0.62,2.45 0.03,0 -0.2,0.95 -0.47,1.02 -0.59,0.18 -1.27,0.03 -1.9,0.13 -0.44,0.08 -0.82,0.37 -1.23,0.55 0.39,0.32 0.75,0.74 1.2,0.94 7.21,3.22 9.5,3.31 2.44,3.41 l -0.21,-0.02 c 4.03,1.77 -0.82,2.43 2.91,2.94 12.71,1.76 8.72,1.68 -0.76,3.14 7.12,2.17 13.99,4.35 21.05,5.42 7.13,1.08 14.47,0.8 21.65,1.57 16.15,1.82 43.07,-0.13 60.05,-0.36 24.71,-0.34 49.34,2.1 74.08,1.15 12.24,-0.46 24.54,0.72 36.83,1.06 9.35,0.26 18.72,0.43 28.08,0.52 7.04,0.08 14.11,0.25 21.13,-0.09 11.91,-0.58 23.87,1.69 35.72,-0.77 0.18,-0.05 0.39,0 0.59,0.08 -0.96,-0.49 -1.92,-1.07 -2.91,-1.1 -18.08,-0.59 -36.15,-1.03 -54.24,-1.57 -16.48,-0.49 -32.96,-1.06 -49.44,-1.61 -0.96,-0.04 -1.92,-0.19 -2.83,-0.44 -0.39,-0.11 -0.97,-0.77 -0.89,-0.96 0.19,-0.47 0.65,-0.95 1.12,-1.15 0.58,-0.22 1.27,-0.2 1.91,-0.2 11.62,-0.05 23.23,-0.01 34.85,-0.16 6.27,-0.1 12.53,-0.82 18.78,-0.73 14.39,0.2 28.78,0.76 43.18,1.07 2.28,0.05 5.29,1.27 6.19,-2.38 0.07,-0.24 0.88,-0.51 1.28,-0.44 3.03,0.59 4.68,-1.21 6.4,-3.12 0.59,-0.64 1.62,-0.97 2.51,-1.27 4.07,-1.33 8.32,-2.3 12.18,-4.04 2.03,-0.91 4.83,-2.18 3.79,-5.66 -0.31,-1.04 0.69,-2.59 1.38,-3.72 2.2,-3.58 4.49,-7.09 6.82,-10.59 1.13,-1.69 0.58,-2.89 -0.96,-3.94 -0.53,-0.35 -1.05,-0.72 -1.54,-1.14 -2.98,-2.54 -2.83,-3.66 0.82,-5.07 1.24,-0.49 2.77,-0.74 2.2,-2.41 -1.14,-3.39 0.98,-2.67 3.05,-2.54 2.89,0.19 4.22,-1.4 3.17,-3.97 -1.08,-2.64 -1.44,-5.68 -4.43,-7.47 -1.01,-0.59 -1.98,-2.61 -1.67,-3.58 0.79,-2.46 2.13,-4.82 3.65,-6.96 0.54,-0.75 2.3,-0.63 3.44,-1.08 0.64,-0.25 1.33,-0.74 1.67,-1.29 0.75,-1.18 1.25,-2.49 1.91,-3.72 2.52,-4.78 1.24,-7.89 -4.09,-9.72 z"
             id="path1109"
             inkscape:connector-curvature="0"
             style="fill:#4d4f93;fill-rule:nonzero" /><path
             class="fil10"
             d="m 147.88,300.35 7.5,2.27 c -0.5,2.1 -1.29,3.86 -2.38,5.27 -1.08,1.41 -2.43,2.48 -4.03,3.2 -1.61,0.72 -3.65,1.08 -6.14,1.08 -3.01,0 -5.47,-0.44 -7.38,-1.32 -1.91,-0.87 -3.55,-2.41 -4.94,-4.62 -1.39,-2.2 -2.08,-5.02 -2.08,-8.46 0,-4.58 1.22,-8.11 3.66,-10.57 2.44,-2.46 5.89,-3.69 10.35,-3.69 3.49,0 6.23,0.71 8.23,2.12 2,1.41 3.48,3.58 4.45,6.5 l -7.56,1.68 c -0.27,-0.84 -0.54,-1.46 -0.83,-1.85 -0.48,-0.66 -1.07,-1.16 -1.76,-1.51 -0.69,-0.36 -1.47,-0.53 -2.33,-0.53 -1.94,0 -3.42,0.78 -4.46,2.34 -0.78,1.16 -1.17,2.98 -1.17,5.45 0,3.08 0.47,5.18 1.4,6.32 0.93,1.14 2.24,1.71 3.93,1.71 1.64,0 2.88,-0.46 3.72,-1.38 0.83,-0.92 1.44,-2.26 1.82,-4.01 z"
             id="path1111"
             inkscape:connector-curvature="0"
             style="fill:#fefefe;fill-rule:nonzero" /><path
             class="fil10"
             d="m 175.65,295.21 3.61,0 c 0.39,0 1.14,-0.13 2.27,-0.38 0.56,-0.11 1.02,-0.4 1.38,-0.87 0.36,-0.46 0.54,-1 0.54,-1.6 0,-0.9 -0.28,-1.59 -0.85,-2.06 -0.56,-0.48 -1.63,-0.72 -3.19,-0.72 l -3.76,0 z m -8.6,16.48 0,-27.71 14.27,0 c 2.64,0 4.67,0.23 6.06,0.68 1.4,0.46 2.53,1.3 3.39,2.53 0.86,1.22 1.28,2.72 1.28,4.49 0,1.53 -0.32,2.86 -0.98,3.97 -0.66,1.12 -1.56,2.02 -2.7,2.72 -0.74,0.44 -1.74,0.8 -3.01,1.09 1.02,0.34 1.76,0.68 2.23,1.02 0.31,0.23 0.77,0.72 1.37,1.46 0.6,0.75 1,1.32 1.2,1.72 l 4.14,8.03 -9.67,0 -4.58,-8.47 c -0.58,-1.09 -1.1,-1.8 -1.55,-2.13 -0.62,-0.43 -1.32,-0.64 -2.1,-0.64 l -0.75,0 0,11.24 z"
             id="path1113"
             inkscape:connector-curvature="0"
             style="fill:#fefefe;fill-rule:nonzero" /><polygon
             class="fil10"
             points="205.96,311.69 214.55,311.69 214.55,283.98 205.96,283.98 "
             id="polygon1115"
             style="fill:#fefefe;fill-rule:nonzero" /><path
             class="fil10"
             d="m 244.25,301.13 -3.06,-9.97 -3.03,9.97 z m 1.77,5.99 -9.72,0 -1.35,4.57 -8.74,0 10.41,-27.71 9.35,0 10.41,27.71 -8.97,0 z"
             id="path1117"
             inkscape:connector-curvature="0"
             style="fill:#fefefe;fill-rule:nonzero" /><polygon
             class="fil10"
             points="286.47,299.31 286.47,283.98 294.54,283.98 294.54,311.69 286.47,311.69 276.09,296.48 276.09,311.69 268.04,311.69 268.04,283.98 276.04,283.98 "
             id="polygon1119"
             style="fill:#fefefe;fill-rule:nonzero" /><path
             class="fil10"
             d="m 315.16,314.83 0.57,-2.23 c 1.18,-0.29 2.29,-0.43 3.33,-0.43 2.15,0 3.64,0.36 4.46,1.09 0.82,0.73 1.23,1.59 1.23,2.59 0,0.61 -0.19,1.23 -0.56,1.87 -0.37,0.64 -1.04,1.16 -2,1.55 -0.95,0.39 -2.23,0.59 -3.81,0.59 -1.44,0 -3.13,-0.17 -5.07,-0.49 l 0,-2.33 c 1.31,0.25 2.7,0.38 4.18,0.38 1.08,0 1.81,-0.14 2.2,-0.43 0.38,-0.29 0.58,-0.67 0.58,-1.14 0,-0.36 -0.16,-0.68 -0.48,-0.94 -0.31,-0.27 -0.8,-0.4 -1.47,-0.4 -0.89,0 -1.95,0.11 -3.16,0.32 z m 10.49,-14.48 7.51,2.27 c -0.51,2.1 -1.3,3.86 -2.38,5.27 -1.09,1.41 -2.43,2.48 -4.04,3.2 -1.61,0.72 -3.65,1.08 -6.13,1.08 -3.02,0 -5.47,-0.44 -7.38,-1.32 -1.91,-0.87 -3.56,-2.41 -4.95,-4.62 -1.38,-2.2 -2.08,-5.02 -2.08,-8.46 0,-4.58 1.22,-8.11 3.66,-10.57 2.44,-2.46 5.89,-3.69 10.35,-3.69 3.49,0 6.23,0.71 8.23,2.12 2,1.41 3.48,3.58 4.45,6.5 l -7.56,1.68 c -0.26,-0.84 -0.54,-1.46 -0.83,-1.85 -0.48,-0.66 -1.06,-1.16 -1.76,-1.51 -0.69,-0.36 -1.46,-0.53 -2.32,-0.53 -1.94,0 -3.43,0.78 -4.46,2.34 -0.78,1.16 -1.17,2.98 -1.17,5.45 0,3.08 0.46,5.18 1.39,6.32 0.94,1.14 2.25,1.71 3.94,1.71 1.63,0 2.87,-0.46 3.71,-1.38 0.84,-0.92 1.45,-2.26 1.82,-4.01 z"
             id="path1121"
             inkscape:connector-curvature="0"
             style="fill:#fefefe;fill-rule:nonzero" /><path
             class="fil10"
             d="m 362.86,301.13 -3.06,-9.97 -3.03,9.97 z m 1.78,5.99 -9.73,0 -1.35,4.57 -8.74,0 10.42,-27.71 9.34,0 10.41,27.71 -8.97,0 z"
             id="path1123"
             inkscape:connector-curvature="0"
             style="fill:#fefefe;fill-rule:nonzero" /><path
             class="fil11"
             d="m 131.86,270.31 0.18,0 c 0.25,0 0.38,-0.1 0.38,-0.28 l -0.19,0 c -0.25,0 -0.37,0.09 -0.37,0.28 z"
             id="path1125"
             inkscape:connector-curvature="0"
             style="fill:#faa836;fill-rule:nonzero" /><polygon
             class="fil11"
             points="135.62,269.37 135.99,269.37 135.99,269.28 135.62,269.28 "
             id="polygon1127"
             style="fill:#faa836;fill-rule:nonzero" /><polygon
             class="fil11"
             points="136.74,269.65 136.93,269.65 136.93,269.28 136.74,269.28 "
             id="polygon1129"
             style="fill:#faa836;fill-rule:nonzero" /><path
             class="fil11"
             d="m 138.81,258.75 0,0.1 c 0,0.25 0.12,0.37 0.37,0.37 l 0.19,0 0,-0.19 c 0,-0.18 -0.12,-0.28 -0.37,-0.28 z"
             id="path1131"
             inkscape:connector-curvature="0"
             style="fill:#faa836;fill-rule:nonzero" /><polygon
             class="fil11"
             points="140.31,175.05 140.69,175.05 140.69,174.95 140.31,174.95 "
             id="polygon1133"
             style="fill:#faa836;fill-rule:nonzero" /><path
             class="fil10"
             d="m 155.07,225.3 6.5,0 c 5.11,0 8.7,-0.89 10.77,-2.66 2.07,-1.78 3.11,-4.05 3.11,-6.82 0,-2.7 -0.9,-4.98 -2.7,-6.85 -1.79,-1.88 -5.17,-2.81 -10.13,-2.81 l -7.55,0 z m -26.64,-36.59 44.09,0 c 9.6,0 16.79,2.28 21.58,6.85 4.78,4.56 7.17,11.06 7.17,19.49 0,8.67 -2.61,15.44 -7.82,20.32 -5.21,4.88 -13.16,7.32 -23.86,7.32 l -14.52,0 0,31.85 -26.64,0 z"
             id="path1135"
             inkscape:connector-curvature="0"
             style="fill:#fefefe;fill-rule:nonzero" /><path
             class="fil12"
             d="m 133.67,179.06 -2.46,-8.67 -0.07,0 c 0.11,1.48 0.17,2.63 0.17,3.44 l 0,5.23 -2.88,0 0,-12.03 4.33,0 2.51,8.54 0.07,0 2.46,-8.54 4.33,0 0,12.03 -2.99,0 0,-5.27 c 0,-0.28 0.01,-0.58 0.02,-0.92 0.01,-0.34 0.04,-1.15 0.11,-2.46 l -0.07,0 -2.43,8.65 z"
             id="path1137"
             inkscape:connector-curvature="0"
             style="fill:#ffffff;fill-rule:nonzero" /><path
             class="fil12"
             d="m 160.36,173.03 c 0,2.02 -0.5,3.56 -1.49,4.62 -0.99,1.05 -2.45,1.58 -4.36,1.58 -1.89,0 -3.34,-0.53 -4.34,-1.59 -1.01,-1.06 -1.51,-2.6 -1.51,-4.62 0,-2.01 0.5,-3.54 1.5,-4.59 1,-1.06 2.46,-1.59 4.36,-1.59 1.92,0 3.37,0.53 4.36,1.57 0.99,1.05 1.48,2.59 1.48,4.62 z m -8.28,0 c 0,2.32 0.81,3.48 2.43,3.48 0.82,0 1.43,-0.28 1.83,-0.84 0.4,-0.57 0.6,-1.45 0.6,-2.64 0,-1.21 -0.2,-2.09 -0.61,-2.67 -0.4,-0.57 -1,-0.86 -1.81,-0.86 -1.62,0 -2.44,1.18 -2.44,3.53 z"
             id="path1139"
             inkscape:connector-curvature="0"
             style="fill:#ffffff;fill-rule:nonzero" /><path
             class="fil12"
             d="m 173.67,167.03 3.63,0 -3.94,12.03 -3.83,0 -3.92,-12.03 3.65,0 1.64,6.09 c 0.34,1.36 0.53,2.31 0.56,2.84 0.04,-0.39 0.12,-0.87 0.23,-1.44 0.12,-0.58 0.22,-1.03 0.3,-1.36 z"
             id="path1141"
             inkscape:connector-curvature="0"
             style="fill:#ffffff;fill-rule:nonzero" /><polygon
             class="fil12"
             points="182.98,179.06 182.98,167.03 186.25,167.03 186.25,179.06 "
             id="polygon1143"
             style="fill:#ffffff;fill-rule:nonzero" /><path
             class="fil12"
             d="m 198.47,179.06 -2.46,-8.67 -0.08,0 c 0.12,1.48 0.17,2.63 0.17,3.44 l 0,5.23 -2.88,0 0,-12.03 4.33,0 2.51,8.54 0.07,0 2.46,-8.54 4.34,0 0,12.03 -2.99,0 0,-5.27 c 0,-0.28 0.01,-0.58 0.01,-0.92 0.01,-0.34 0.05,-1.15 0.11,-2.46 l -0.07,0 -2.43,8.65 z"
             id="path1145"
             inkscape:connector-curvature="0"
             style="fill:#ffffff;fill-rule:nonzero" /><polygon
             class="fil12"
             points="221.04,179.06 213.9,179.06 213.9,167.03 221.04,167.03 221.04,169.64 217.15,169.64 217.15,171.53 220.75,171.53 220.75,174.14 217.15,174.14 217.15,176.41 221.04,176.41 "
             id="polygon1147"
             style="fill:#ffffff;fill-rule:nonzero" /><path
             class="fil12"
             d="m 238.98,179.06 -4.27,0 -4.39,-8.48 -0.07,0 c 0.1,1.34 0.15,2.35 0.15,3.06 l 0,5.42 -2.88,0 0,-12.03 4.25,0 4.38,8.36 0.05,0 c -0.08,-1.21 -0.12,-2.19 -0.12,-2.92 l 0,-5.44 2.9,0 z"
             id="path1149"
             inkscape:connector-curvature="0"
             style="fill:#ffffff;fill-rule:nonzero" /><polygon
             class="fil12"
             points="245.07,167.03 254.2,167.03 254.2,169.69 251.26,169.69 251.26,179.06 248.02,179.06 248.02,169.69 245.07,169.69 "
             id="polygon1151"
             style="fill:#ffffff;fill-rule:nonzero" /><path
             class="fil12"
             d="m 271.55,173.03 c 0,2.02 -0.5,3.56 -1.49,4.62 -0.99,1.05 -2.45,1.58 -4.36,1.58 -1.89,0 -3.34,-0.53 -4.34,-1.59 -1.01,-1.06 -1.51,-2.6 -1.51,-4.62 0,-2.01 0.5,-3.54 1.5,-4.59 1,-1.06 2.46,-1.59 4.36,-1.59 1.92,0 3.37,0.53 4.36,1.57 0.99,1.05 1.48,2.59 1.48,4.62 z m -8.28,0 c 0,2.32 0.81,3.48 2.43,3.48 0.82,0 1.43,-0.28 1.83,-0.84 0.4,-0.57 0.6,-1.45 0.6,-2.64 0,-1.21 -0.2,-2.09 -0.61,-2.67 -0.4,-0.57 -1,-0.86 -1.81,-0.86 -1.62,0 -2.44,1.18 -2.44,3.53 z"
             id="path1153"
             inkscape:connector-curvature="0"
             style="fill:#ffffff;fill-rule:nonzero" /><path
             class="fil10"
             d="m 155.07,225.3 6.5,0 c 5.11,0 8.7,-0.89 10.77,-2.66 2.07,-1.78 3.11,-4.05 3.11,-6.82 0,-2.7 -0.9,-4.98 -2.7,-6.85 -1.79,-1.88 -5.17,-2.81 -10.13,-2.81 l -7.55,0 z m -26.64,-36.59 44.09,0 c 9.6,0 16.79,2.28 21.58,6.85 4.78,4.56 7.17,11.06 7.17,19.49 0,8.67 -2.61,15.44 -7.82,20.32 -5.21,4.88 -13.16,7.32 -23.86,7.32 l -14.52,0 0,31.85 -26.64,0 z"
             id="path1155"
             inkscape:connector-curvature="0"
             style="fill:#fefefe;fill-rule:nonzero" /><path
             class="fil10"
             d="m 198.88,274.3 0,-85.59 41.49,0 c 7.7,0 13.58,0.7 17.64,2.1 4.07,1.4 7.35,4 9.84,7.79 2.49,3.8 3.74,8.42 3.74,13.87 0,4.75 -0.95,8.84 -2.86,12.29 -1.91,3.44 -4.53,6.24 -7.86,8.38 -2.13,1.36 -5.04,2.49 -8.75,3.38 2.97,1.06 5.13,2.11 6.48,3.16 0.92,0.7 2.25,2.2 3.99,4.5 1.73,2.3 2.9,4.07 3.48,5.32 l 12.06,24.8 -28.13,0 -13.31,-26.16 c -1.69,-3.38 -3.19,-5.58 -4.51,-6.59 -1.79,-1.33 -3.83,-1.99 -6.1,-1.99 l -2.19,0 0,34.74 z m 25.03,-49.27 c 2.5,0 5,0.01 7.49,-0.03 2.26,-0.03 4.55,-0.29 6.55,-0.93 2.15,-0.69 3.42,-1.67 4.48,-3 2.55,-3.19 2.42,-8.08 0.05,-11.32 -0.07,-0.1 -0.09,-0.14 -0.18,-0.26 -2.38,-3.23 -7.12,-3.59 -10.9,-3.62 -2.49,-0.01 -4.98,0 -7.48,0 z"
             id="path1157"
             inkscape:connector-curvature="0"
             style="fill:#fefefe;fill-rule:nonzero" /><path
             class="fil10"
             d="m 374.99,221.35 c 0,29.25 -23.71,52.96 -52.96,52.96 -29.25,0 -52.96,-23.71 -52.96,-52.96 0,-29.25 23.71,-52.96 52.96,-52.96 29.25,0 52.96,23.71 52.96,52.96 z"
             id="path1159"
             inkscape:connector-curvature="0"
             style="fill:#fefefe;fill-rule:nonzero" /><path
             class="fil9"
             d="m 313.1,219.65 c 0,3.17 -2.58,5.75 -5.75,5.75 -3.18,0 -5.75,-2.58 -5.75,-5.75 0,-3.18 2.57,-5.75 5.75,-5.75 3.17,0 5.75,2.57 5.75,5.75 z"
             id="path1161"
             inkscape:connector-curvature="0"
             style="fill:#4d4f93;fill-rule:nonzero" /><path
             class="fil9"
             d="m 342.45,218.43 c 0,3.17 -2.57,5.74 -5.74,5.74 -3.18,0 -5.75,-2.57 -5.75,-5.74 0,-3.18 2.57,-5.75 5.75,-5.75 3.17,0 5.74,2.57 5.74,5.75 z"
             id="path1163"
             inkscape:connector-curvature="0"
             style="fill:#4d4f93;fill-rule:nonzero" /><path
             class="fil9"
             d="m 295.76,246.82 c -0.22,0 -0.43,-0.15 -0.49,-0.38 -0.08,-0.27 0.08,-0.55 0.35,-0.63 0.04,-0.01 4.07,-1.17 5.49,-4 1.25,-2.5 1.27,-3.55 1.31,-5.85 0.01,-0.28 0.24,-0.52 0.52,-0.5 0.29,0 0.51,0.24 0.51,0.52 -0.05,2.31 -0.07,3.58 -1.42,6.28 -1.62,3.24 -5.95,4.49 -6.13,4.54 -0.05,0.01 -0.09,0.02 -0.14,0.02 z"
             id="path1165"
             inkscape:connector-curvature="0"
             style="fill:#4d4f93;fill-rule:nonzero" /><path
             class="fil9"
             d="m 348.29,245.89 c -0.02,0 -0.04,0 -0.06,-0.01 -0.19,-0.02 -4.65,-0.65 -6.71,-3.63 -1.71,-2.49 -1.92,-3.75 -2.28,-6.02 -0.04,-0.28 0.15,-0.54 0.43,-0.59 0.28,-0.04 0.54,0.15 0.58,0.43 0.37,2.26 0.53,3.3 2.12,5.6 1.8,2.6 5.95,3.19 5.99,3.2 0.28,0.03 0.48,0.29 0.44,0.57 -0.03,0.26 -0.25,0.45 -0.51,0.45 z"
             id="path1167"
             inkscape:connector-curvature="0"
             style="fill:#4d4f93;fill-rule:nonzero" /><path
             class="fil9"
             d="m 322.06,257.65 c -18.15,0 -20.28,-16.51 -20.28,-16.51 0,0 3.78,0.91 19.96,0.91 16.18,0 19.96,-0.91 19.96,-0.91 0,0 -1.21,16.51 -19.64,16.51 z"
             id="path1169"
             inkscape:connector-curvature="0"
             style="fill:#4d4f93;fill-rule:nonzero" /><path
             class="fil8"
             d="m 400.95,184.75 -8.12,-18.68 -30.93,19.71 -0.04,0 c 0,0 -19.64,-28.51 -55.81,-15.84 -34.34,12.03 -36.7,45.64 -36.7,45.64 8.8,-0.43 39.59,-0.82 97.34,-20.44 5.64,-1.76 11.11,-3.46 15.95,-4.97 z"
             id="path1171"
             inkscape:connector-curvature="0"
             style="fill:#f1bc48;fill-rule:nonzero" /></g></g></g></g></svg>